<svg width="3779" height="782" viewBox="0 0 3779 782" fill="none" xmlns="http://www.w3.org/2000/svg">
<g filter="url(#filter0_d_1_4)">
<g filter="url(#filter1_d_1_4)">
<mask id="path-1-outside-1_1_4" maskUnits="userSpaceOnUse" x="4.4967" y="-0.0810547" width="873" height="638" fill="black">
<rect fill="white" x="4.4967" y="-0.0810547" width="873" height="638"/>
<path d="M34.6666 3.5333C21.1999 7.1333 13.4666 13.1333 7.5999 24.6C4.53324 30.3333 4.7999 33.8 8.53323 41.6666C12.2666 49.8 15.0666 52.3333 26.3999 58.3333L35.3332 63L43.0666 78.2C47.1999 86.6 50.6666 93.9333 50.6666 94.5999C50.6666 95.2666 51.7332 97.3999 52.9332 99.2666C54.2666 101.267 55.9999 104.733 56.9332 107C57.7332 109.133 60.2666 115.533 62.3999 121C64.5332 126.467 67.5999 135.8 69.0666 141.667C70.6666 147.533 72.9332 155.933 73.9999 160.333C75.1999 164.733 77.1999 172.867 78.5332 178.467C79.8666 184.067 81.4666 189.4 81.9999 190.333C82.5332 191.133 83.7332 195.267 84.7999 199.4C85.7332 203.667 87.7332 211.133 89.0666 216.333C96.1332 241.533 102.4 264.467 113.333 305.667C114.667 310.733 117.333 320.733 119.2 327.667C121.067 334.6 123.867 344.467 125.2 349.667C126.533 354.733 129.067 363.8 130.667 369.667C132.267 375.533 134.4 383.267 135.333 387C137.333 394.6 142.667 414.467 146.533 428.333C147.867 433.4 150.667 443.667 152.533 450.867C154.533 458.2 156.4 464.6 156.8 465.133C157.067 465.667 157.867 468.733 158.533 471.933C159.2 475.133 161.6 484.6 164 493C171.867 521.667 173.333 527 175.867 537C177.333 542.467 180.267 553.933 182.667 562.333C187.333 579.133 187.867 581.267 196 611.533C198.933 622.867 202 633.133 202.8 634.6C204.533 637.8 210.933 637.667 214 634.333C216.933 631.133 217.733 635.533 204.267 585C202.8 579.533 198.4 563.533 194.667 549.667C190.8 535.667 186.933 521.267 186 517.667C185.067 513.933 183.333 507.4 182.133 503C180.933 498.6 178.667 490.467 177.2 485C175.733 479.533 173.733 471.933 172.667 468.333C166.4 446.467 161.333 426.733 161.333 424.6C161.333 423.4 160.8 421.267 160 419.933C159.333 418.733 157.733 414.067 156.533 409.667C150.267 385.8 143.733 361.533 140.667 350.333C138.667 343.4 136.267 334.333 135.333 330.333C134.4 326.333 132.667 319.933 131.6 316.333C126.667 300.733 123.867 290.467 122 281.667C120.933 276.467 118.8 267.8 117.2 262.333C113.6 249.267 112.667 242.333 114.533 242.333C115.2 242.333 116.533 244.6 117.333 247.533C118 250.333 119.467 253.4 120.533 254.2C121.6 255.133 122.8 257.4 123.2 259.4C123.733 261.4 125.467 265.933 127.2 269.667C134.133 284.6 135.2 287.267 136.8 292.333C138.533 297.933 141.333 305.933 147.333 321.667C149.2 326.733 154 340.6 158 352.333C162.133 364.067 167.2 378.733 169.467 385C171.733 391.267 174.133 398.467 174.8 401C175.6 403.533 177.2 409 178.667 413C186.667 436.467 204.4 497.267 213.333 531.667C214.933 537.933 217.333 547.133 218.8 552.333C220.133 557.4 222.8 568.2 224.667 576.333C226.533 584.333 229.2 595.8 230.667 601.667C232.133 607.533 233.6 615 234.133 618.333C234.667 621.667 235.6 625.133 236.4 626.067C238 628.067 243.6 628.2 249.067 626.2C252.133 625.133 253.867 625.267 256.267 626.467C260.133 628.6 266.933 628.2 268.8 625.667C270.267 623.667 270.133 622.067 265.333 588.333C257.333 530.867 257.333 531.667 261.6 527.667C263.2 526.2 265.6 525 266.933 525C268.267 525 273.067 523.8 277.333 522.333C288 518.733 313.333 514.6 331.067 513.533C352 512.2 390.267 515.933 427.333 522.867C436.933 524.6 449.733 527 456 528.2C462.267 529.4 471.6 531.133 476.667 532.333C513.867 540.2 536.8 543.133 558.8 542.733C584 542.467 590.4 541 641.333 524.333C688.533 509 706.933 505.133 748 502.333C773.467 500.6 822.667 504.467 850.267 510.333C867.067 513.933 868.4 513.8 872.533 508.467C874.4 505.933 876 503.267 876 502.467C876 501.667 872.533 496.067 868.4 489.933C853.333 468.067 844.267 444.2 840.667 416.333C838.8 401.8 838.533 393 839.333 361.667C840 330.067 839.867 322.333 838 311.667C836.8 304.733 835.333 298.467 834.8 297.667C834.133 297 832.933 293.933 832 291C829.6 283.8 822.8 274.067 812 263C807.067 257.8 800.267 249.4 796.8 244.333C789.067 232.6 770.667 207.133 762.4 196.867C753.733 186.067 734.667 157.267 734.667 155.133C734.667 154.2 733.6 151.933 732.267 150.2C729.333 146.333 723.867 131.8 720.133 118.333C717.333 107.8 714.667 81.8 715.067 68.6C715.333 58.8666 713.867 57.5333 701.6 56.3333C696.667 55.8 689.333 55 685.333 54.3333C678.533 53.4 638 55.6666 625.467 57.8C604.667 61.2666 585.467 65 561.333 70.3333C555.067 71.8 547.867 73.2666 545.333 73.6666C542.8 74.0666 535.333 75.6666 528.667 77C477.067 87.6666 437.467 86.6 405.6 73.5333C399.2 71 388 67.4 380.667 65.5333C352.8 58.4666 347.2 57.1333 340.667 56.3333C337.067 55.8 332.267 54.8666 330 54.2C325.467 52.8666 304.8 49.9333 278.667 47C254.533 44.2 193.733 44.2 170 47C148.933 49.4 133.067 51.8 114.933 55.5333C96.6666 59.2666 94.1332 59.1333 90.6666 54.7333C88.3999 51.8 87.9999 49.9333 88.5332 45.6666C91.0666 28.0666 91.0666 26.7333 87.9999 21.2666C83.8666 13.9333 73.0666 6.3333 62.6666 3.39997C52.1332 0.466633 45.8666 0.466633 34.6666 3.5333ZM61.4666 19.6666C74.5332 24.6 77.9999 31.5333 71.3332 39.4C62.2666 50.0666 35.9999 50.0666 25.1999 39.4C20.3999 34.4666 20.2666 30.4666 25.0666 26.0666C34.2666 17.4 48.9332 14.8666 61.4666 19.6666ZM76.6666 61.8C85.4666 70.7333 120.8 135.133 138.667 175C140.267 178.6 142.933 184.6 144.667 188.333C149.733 199.533 154.933 211.667 161.6 228.333C163.067 231.933 165.067 236.733 166 239C166.933 241.133 168.8 245.933 170 249.667C171.333 253.267 173.467 259.267 174.8 263C179.2 275.4 191.6 312.2 195.2 324.333C203.467 351.4 205.067 357.4 212.667 386.333C225.467 435 237.333 496.867 244.667 551.667C245.867 560.867 247.333 570.733 248 573.667C249.467 579.8 252.4 610.467 251.6 611.267C250.133 612.6 246.4 604.067 244.667 595.4C243.6 590.067 241.467 580.867 240 575C238.667 569.133 234.933 554.067 232 541.667C228.933 529.133 225.6 516.333 224.667 513C223.6 509.667 220.933 500.067 218.667 491.667C216.4 483.267 213.733 473.933 212.8 471C211.733 468.067 209.333 459.933 207.333 453C200.8 430.2 174.4 349.533 171.333 342.733C170.267 340.467 169.333 337.4 169.333 336.067C169.333 334.733 168.8 333 168.133 332.2C167.333 331.533 164.4 324.067 161.333 315.667C158.4 307.267 155.067 298.467 154 296.067C152.933 293.8 152 291.533 152 290.867C152 289.933 146.267 274.733 144 269.667C143.333 268.2 140.667 261.533 138.133 254.733C135.467 248.067 132.533 240.6 131.467 238.067C130.4 235.667 128.667 231.533 127.6 229C126.4 226.467 123.467 219.267 120.933 213C114 196.067 100.267 163.8 97.3332 157.667C95.9999 154.733 94.5332 151.4 94.1332 150.333C93.7332 149.267 92.7999 147.4 91.9999 146.333C91.3332 145.267 89.4666 141.267 87.8666 137.667C86.2666 133.933 83.1999 127.133 81.0666 122.333C78.9332 117.533 75.8666 111 74.3999 107.667C73.0666 104.333 71.1999 100.733 70.5332 99.6666C69.8666 98.5999 68.6666 96.1999 67.8666 94.3333C67.0666 92.4666 63.8666 85.6666 60.6666 79.1333C54.1332 66.0666 54.2666 62.4666 61.0666 62.2C63.0666 62.2 65.8666 61.6666 67.3332 61C71.4666 59.2666 74.2666 59.5333 76.6666 61.8ZM277.333 62.4666C320.133 66.6 373.467 78.2 408.133 90.7333C439.467 102.2 481.333 102.467 534.933 91.6666C545.467 89.5333 558.8 86.8666 564.667 85.6666C570.533 84.6 577.733 82.8666 580.667 82.0666C586 80.6 603.733 77.2666 626 73.5333C632.667 72.4666 650.4 71.2666 665.6 70.7333L693.067 69.9333L696.4 73.2666C699.333 76.2 699.733 77.7999 700.4 91.7999C701.067 107.133 706 130.6 710.267 138.733C711.333 140.867 712 144.067 711.733 145.933L711.333 149.267L689.333 149.667C661.067 150.2 645.067 152.067 613.333 158.333C610 159 604.667 159.933 601.333 160.333C598 160.867 591.467 162.333 586.667 163.667C581.867 165 576.267 166.467 574 166.867C571.867 167.4 567.333 168.333 564 169.133C554 171.4 528 175.933 518 177.133C492.267 180.333 438.8 179.8 420.933 176.2C419.333 175.933 412.267 174.733 405.333 173.533C382.933 169.933 371.467 167.8 366 166.467C357.2 164.333 337.333 160.067 327.333 158.333C322.267 157.4 314.667 155.8 310.667 154.733C296.8 151 287.067 149.4 258 145.667C237.333 143.133 219.333 142.333 206.667 143.533C177.467 146.2 160.133 148.867 154.8 151.667L149.467 154.333L146.267 149.933C144.533 147.667 139.6 138.867 135.467 130.467C126.133 111.667 118.667 98.0666 113.467 89.5333C106.667 78.7333 106 77 107.467 74.7333C108.8 72.7333 122.667 69.2666 138 67.1333C141.733 66.6 149.467 65.4 155.333 64.2C177.867 60.0666 242.4 59 277.333 62.4666ZM281.333 232.867C283.2 233.667 294.267 235.4 306 237C317.733 238.6 335.733 241.8 346 244.333C356.267 246.733 369.733 249.8 376 251C388.267 253.4 393.067 254.333 407.333 257.667C416.667 259.8 421.2 260.467 446 264.2C479.2 269 485.867 269.667 504 269.667C530.8 269.667 556.8 265.8 598 255.8C622.4 249.8 637.733 246.333 659.333 241.667C672.133 239 692.667 237.933 732.4 238.067C775.6 238.2 773.867 237.8 783.6 252.333C787.2 257.4 795.067 267 801.2 273.667C813.6 287 818.8 296.6 822.133 312.067C823.867 320.467 823.867 321.667 821.867 324.733C819.867 327.8 819.333 327.933 812.933 326.867C802.267 325 735.6 325.4 724 327.267C718.533 328.2 709.467 329.533 704 330.333C682.8 333.267 674.533 334.733 673.867 335.8C673.467 336.467 671.067 337 668.533 337C665.867 337 662.667 337.667 661.2 338.333C659.867 339.133 652.533 340.867 645.067 342.333C637.467 343.8 628.933 345.533 626 346.2C590.133 354.333 563.6 357.667 528.933 358.2C503.867 358.6 462 354.067 440 348.733C433.733 347.267 421.467 344.6 412.667 342.867C403.867 341.267 390.667 338.2 383.333 336.333C376 334.333 363.067 331.667 354.667 330.333C346.267 328.867 331.6 326.6 322 325C307.067 322.6 301.2 322.2 278.667 322.867C260.933 323.4 250.267 324.333 245.333 325.667C241.333 326.867 234.667 328.333 230.667 329C226.667 329.667 222 330.6 220.533 331C216.933 332.067 212.4 327.667 211.333 321.8C210.4 317.133 198.533 280.067 194.667 269.667C193.2 265.933 190.267 258.333 188 252.467C183.733 241.133 183.067 236.467 185.6 234.733C191.467 231.133 272.667 229.533 281.333 232.867ZM327.333 411C333.2 411.4 338.933 412.2 340 412.6C341.067 413 345.867 413.8 350.667 414.467C355.467 415 362.4 416.067 366 416.867C369.733 417.667 378.667 419.133 386 420.333C393.333 421.533 402.267 423.267 405.867 424.333C409.467 425.4 414.133 426.333 416.133 426.333C418.267 426.333 421.2 426.867 422.933 427.533C427.6 429.4 435.733 431.267 446 433C451.2 433.8 458.933 435.4 463.333 436.333C467.733 437.267 475.867 439.133 481.467 440.333C487.067 441.533 499.067 443.4 508.133 444.467C517.2 445.533 528.533 447 533.333 447.533C548.933 449.4 578.267 449.267 593.067 447C622.533 442.733 626.267 442.067 638.667 438.467C645.6 436.333 656.133 433.667 662 432.333C667.867 431 673.867 429.4 675.2 428.6C676.667 427.933 681.733 426.467 686.533 425.4C713.467 419.4 748.4 416.467 780 417.533C815.867 418.867 821.6 419.4 824.133 422.333C825.333 423.667 826.667 427.933 827.067 431.667C828.267 441.533 836.667 465.267 843.733 478.467C850.133 490.733 850.533 495.4 844.933 493.8C831.2 489.667 780.533 485.8 752.267 486.733C712.4 488.067 686.933 493 640 508.467C579.867 528.467 568.267 530.2 526.667 525C513.867 523.533 486.133 518.6 469.733 515.133C461.6 513.4 449.067 511 412.667 504.333C373.467 497.133 305.6 497.133 284.667 504.2C281.733 505.267 275.867 506.867 271.6 507.8C267.333 508.733 263.6 509.933 263.2 510.6C262.8 511.133 261.067 511.667 259.333 511.667C255.6 511.667 256 513 251.333 487.667C246.8 462.2 241.333 435.4 240.667 434.2C240.267 433.667 239.333 430.2 238.667 426.467C236.8 416.733 238.4 413.667 245.6 412.333C260.533 409.667 303.2 409 327.333 411ZM253.333 617.8C253.333 619.667 252.8 620.867 252 620.333C251.333 619.933 250.667 618.333 250.667 616.867C250.667 615.533 251.333 614.333 252 614.333C252.8 614.333 253.333 615.933 253.333 617.8Z"/>
</mask>
<path d="M34.6666 3.5333C21.1999 7.1333 13.4666 13.1333 7.5999 24.6C4.53324 30.3333 4.7999 33.8 8.53323 41.6666C12.2666 49.8 15.0666 52.3333 26.3999 58.3333L35.3332 63L43.0666 78.2C47.1999 86.6 50.6666 93.9333 50.6666 94.5999C50.6666 95.2666 51.7332 97.3999 52.9332 99.2666C54.2666 101.267 55.9999 104.733 56.9332 107C57.7332 109.133 60.2666 115.533 62.3999 121C64.5332 126.467 67.5999 135.8 69.0666 141.667C70.6666 147.533 72.9332 155.933 73.9999 160.333C75.1999 164.733 77.1999 172.867 78.5332 178.467C79.8666 184.067 81.4666 189.4 81.9999 190.333C82.5332 191.133 83.7332 195.267 84.7999 199.4C85.7332 203.667 87.7332 211.133 89.0666 216.333C96.1332 241.533 102.4 264.467 113.333 305.667C114.667 310.733 117.333 320.733 119.2 327.667C121.067 334.6 123.867 344.467 125.2 349.667C126.533 354.733 129.067 363.8 130.667 369.667C132.267 375.533 134.4 383.267 135.333 387C137.333 394.6 142.667 414.467 146.533 428.333C147.867 433.4 150.667 443.667 152.533 450.867C154.533 458.2 156.4 464.6 156.8 465.133C157.067 465.667 157.867 468.733 158.533 471.933C159.2 475.133 161.6 484.6 164 493C171.867 521.667 173.333 527 175.867 537C177.333 542.467 180.267 553.933 182.667 562.333C187.333 579.133 187.867 581.267 196 611.533C198.933 622.867 202 633.133 202.8 634.6C204.533 637.8 210.933 637.667 214 634.333C216.933 631.133 217.733 635.533 204.267 585C202.8 579.533 198.4 563.533 194.667 549.667C190.8 535.667 186.933 521.267 186 517.667C185.067 513.933 183.333 507.4 182.133 503C180.933 498.6 178.667 490.467 177.2 485C175.733 479.533 173.733 471.933 172.667 468.333C166.4 446.467 161.333 426.733 161.333 424.6C161.333 423.4 160.8 421.267 160 419.933C159.333 418.733 157.733 414.067 156.533 409.667C150.267 385.8 143.733 361.533 140.667 350.333C138.667 343.4 136.267 334.333 135.333 330.333C134.4 326.333 132.667 319.933 131.6 316.333C126.667 300.733 123.867 290.467 122 281.667C120.933 276.467 118.8 267.8 117.2 262.333C113.6 249.267 112.667 242.333 114.533 242.333C115.2 242.333 116.533 244.6 117.333 247.533C118 250.333 119.467 253.4 120.533 254.2C121.6 255.133 122.8 257.4 123.2 259.4C123.733 261.4 125.467 265.933 127.2 269.667C134.133 284.6 135.2 287.267 136.8 292.333C138.533 297.933 141.333 305.933 147.333 321.667C149.2 326.733 154 340.6 158 352.333C162.133 364.067 167.2 378.733 169.467 385C171.733 391.267 174.133 398.467 174.8 401C175.6 403.533 177.2 409 178.667 413C186.667 436.467 204.4 497.267 213.333 531.667C214.933 537.933 217.333 547.133 218.8 552.333C220.133 557.4 222.8 568.2 224.667 576.333C226.533 584.333 229.2 595.8 230.667 601.667C232.133 607.533 233.6 615 234.133 618.333C234.667 621.667 235.6 625.133 236.4 626.067C238 628.067 243.6 628.2 249.067 626.2C252.133 625.133 253.867 625.267 256.267 626.467C260.133 628.6 266.933 628.2 268.8 625.667C270.267 623.667 270.133 622.067 265.333 588.333C257.333 530.867 257.333 531.667 261.6 527.667C263.2 526.2 265.6 525 266.933 525C268.267 525 273.067 523.8 277.333 522.333C288 518.733 313.333 514.6 331.067 513.533C352 512.2 390.267 515.933 427.333 522.867C436.933 524.6 449.733 527 456 528.2C462.267 529.4 471.6 531.133 476.667 532.333C513.867 540.2 536.8 543.133 558.8 542.733C584 542.467 590.4 541 641.333 524.333C688.533 509 706.933 505.133 748 502.333C773.467 500.6 822.667 504.467 850.267 510.333C867.067 513.933 868.4 513.8 872.533 508.467C874.4 505.933 876 503.267 876 502.467C876 501.667 872.533 496.067 868.4 489.933C853.333 468.067 844.267 444.2 840.667 416.333C838.8 401.8 838.533 393 839.333 361.667C840 330.067 839.867 322.333 838 311.667C836.8 304.733 835.333 298.467 834.8 297.667C834.133 297 832.933 293.933 832 291C829.6 283.8 822.8 274.067 812 263C807.067 257.8 800.267 249.4 796.8 244.333C789.067 232.6 770.667 207.133 762.4 196.867C753.733 186.067 734.667 157.267 734.667 155.133C734.667 154.2 733.6 151.933 732.267 150.2C729.333 146.333 723.867 131.8 720.133 118.333C717.333 107.8 714.667 81.8 715.067 68.6C715.333 58.8666 713.867 57.5333 701.6 56.3333C696.667 55.8 689.333 55 685.333 54.3333C678.533 53.4 638 55.6666 625.467 57.8C604.667 61.2666 585.467 65 561.333 70.3333C555.067 71.8 547.867 73.2666 545.333 73.6666C542.8 74.0666 535.333 75.6666 528.667 77C477.067 87.6666 437.467 86.6 405.6 73.5333C399.2 71 388 67.4 380.667 65.5333C352.8 58.4666 347.2 57.1333 340.667 56.3333C337.067 55.8 332.267 54.8666 330 54.2C325.467 52.8666 304.8 49.9333 278.667 47C254.533 44.2 193.733 44.2 170 47C148.933 49.4 133.067 51.8 114.933 55.5333C96.6666 59.2666 94.1332 59.1333 90.6666 54.7333C88.3999 51.8 87.9999 49.9333 88.5332 45.6666C91.0666 28.0666 91.0666 26.7333 87.9999 21.2666C83.8666 13.9333 73.0666 6.3333 62.6666 3.39997C52.1332 0.466633 45.8666 0.466633 34.6666 3.5333ZM61.4666 19.6666C74.5332 24.6 77.9999 31.5333 71.3332 39.4C62.2666 50.0666 35.9999 50.0666 25.1999 39.4C20.3999 34.4666 20.2666 30.4666 25.0666 26.0666C34.2666 17.4 48.9332 14.8666 61.4666 19.6666ZM76.6666 61.8C85.4666 70.7333 120.8 135.133 138.667 175C140.267 178.6 142.933 184.6 144.667 188.333C149.733 199.533 154.933 211.667 161.6 228.333C163.067 231.933 165.067 236.733 166 239C166.933 241.133 168.8 245.933 170 249.667C171.333 253.267 173.467 259.267 174.8 263C179.2 275.4 191.6 312.2 195.2 324.333C203.467 351.4 205.067 357.4 212.667 386.333C225.467 435 237.333 496.867 244.667 551.667C245.867 560.867 247.333 570.733 248 573.667C249.467 579.8 252.4 610.467 251.6 611.267C250.133 612.6 246.4 604.067 244.667 595.4C243.6 590.067 241.467 580.867 240 575C238.667 569.133 234.933 554.067 232 541.667C228.933 529.133 225.6 516.333 224.667 513C223.6 509.667 220.933 500.067 218.667 491.667C216.4 483.267 213.733 473.933 212.8 471C211.733 468.067 209.333 459.933 207.333 453C200.8 430.2 174.4 349.533 171.333 342.733C170.267 340.467 169.333 337.4 169.333 336.067C169.333 334.733 168.8 333 168.133 332.2C167.333 331.533 164.4 324.067 161.333 315.667C158.4 307.267 155.067 298.467 154 296.067C152.933 293.8 152 291.533 152 290.867C152 289.933 146.267 274.733 144 269.667C143.333 268.2 140.667 261.533 138.133 254.733C135.467 248.067 132.533 240.6 131.467 238.067C130.4 235.667 128.667 231.533 127.6 229C126.4 226.467 123.467 219.267 120.933 213C114 196.067 100.267 163.8 97.3332 157.667C95.9999 154.733 94.5332 151.4 94.1332 150.333C93.7332 149.267 92.7999 147.4 91.9999 146.333C91.3332 145.267 89.4666 141.267 87.8666 137.667C86.2666 133.933 83.1999 127.133 81.0666 122.333C78.9332 117.533 75.8666 111 74.3999 107.667C73.0666 104.333 71.1999 100.733 70.5332 99.6666C69.8666 98.5999 68.6666 96.1999 67.8666 94.3333C67.0666 92.4666 63.8666 85.6666 60.6666 79.1333C54.1332 66.0666 54.2666 62.4666 61.0666 62.2C63.0666 62.2 65.8666 61.6666 67.3332 61C71.4666 59.2666 74.2666 59.5333 76.6666 61.8ZM277.333 62.4666C320.133 66.6 373.467 78.2 408.133 90.7333C439.467 102.2 481.333 102.467 534.933 91.6666C545.467 89.5333 558.8 86.8666 564.667 85.6666C570.533 84.6 577.733 82.8666 580.667 82.0666C586 80.6 603.733 77.2666 626 73.5333C632.667 72.4666 650.4 71.2666 665.6 70.7333L693.067 69.9333L696.4 73.2666C699.333 76.2 699.733 77.7999 700.4 91.7999C701.067 107.133 706 130.6 710.267 138.733C711.333 140.867 712 144.067 711.733 145.933L711.333 149.267L689.333 149.667C661.067 150.2 645.067 152.067 613.333 158.333C610 159 604.667 159.933 601.333 160.333C598 160.867 591.467 162.333 586.667 163.667C581.867 165 576.267 166.467 574 166.867C571.867 167.4 567.333 168.333 564 169.133C554 171.4 528 175.933 518 177.133C492.267 180.333 438.8 179.8 420.933 176.2C419.333 175.933 412.267 174.733 405.333 173.533C382.933 169.933 371.467 167.8 366 166.467C357.2 164.333 337.333 160.067 327.333 158.333C322.267 157.4 314.667 155.8 310.667 154.733C296.8 151 287.067 149.4 258 145.667C237.333 143.133 219.333 142.333 206.667 143.533C177.467 146.2 160.133 148.867 154.8 151.667L149.467 154.333L146.267 149.933C144.533 147.667 139.6 138.867 135.467 130.467C126.133 111.667 118.667 98.0666 113.467 89.5333C106.667 78.7333 106 77 107.467 74.7333C108.8 72.7333 122.667 69.2666 138 67.1333C141.733 66.6 149.467 65.4 155.333 64.2C177.867 60.0666 242.4 59 277.333 62.4666ZM281.333 232.867C283.2 233.667 294.267 235.4 306 237C317.733 238.6 335.733 241.8 346 244.333C356.267 246.733 369.733 249.8 376 251C388.267 253.4 393.067 254.333 407.333 257.667C416.667 259.8 421.2 260.467 446 264.2C479.2 269 485.867 269.667 504 269.667C530.8 269.667 556.8 265.8 598 255.8C622.4 249.8 637.733 246.333 659.333 241.667C672.133 239 692.667 237.933 732.4 238.067C775.6 238.2 773.867 237.8 783.6 252.333C787.2 257.4 795.067 267 801.2 273.667C813.6 287 818.8 296.6 822.133 312.067C823.867 320.467 823.867 321.667 821.867 324.733C819.867 327.8 819.333 327.933 812.933 326.867C802.267 325 735.6 325.4 724 327.267C718.533 328.2 709.467 329.533 704 330.333C682.8 333.267 674.533 334.733 673.867 335.8C673.467 336.467 671.067 337 668.533 337C665.867 337 662.667 337.667 661.2 338.333C659.867 339.133 652.533 340.867 645.067 342.333C637.467 343.8 628.933 345.533 626 346.2C590.133 354.333 563.6 357.667 528.933 358.2C503.867 358.6 462 354.067 440 348.733C433.733 347.267 421.467 344.6 412.667 342.867C403.867 341.267 390.667 338.2 383.333 336.333C376 334.333 363.067 331.667 354.667 330.333C346.267 328.867 331.6 326.6 322 325C307.067 322.6 301.2 322.2 278.667 322.867C260.933 323.4 250.267 324.333 245.333 325.667C241.333 326.867 234.667 328.333 230.667 329C226.667 329.667 222 330.6 220.533 331C216.933 332.067 212.4 327.667 211.333 321.8C210.4 317.133 198.533 280.067 194.667 269.667C193.2 265.933 190.267 258.333 188 252.467C183.733 241.133 183.067 236.467 185.6 234.733C191.467 231.133 272.667 229.533 281.333 232.867ZM327.333 411C333.2 411.4 338.933 412.2 340 412.6C341.067 413 345.867 413.8 350.667 414.467C355.467 415 362.4 416.067 366 416.867C369.733 417.667 378.667 419.133 386 420.333C393.333 421.533 402.267 423.267 405.867 424.333C409.467 425.4 414.133 426.333 416.133 426.333C418.267 426.333 421.2 426.867 422.933 427.533C427.6 429.4 435.733 431.267 446 433C451.2 433.8 458.933 435.4 463.333 436.333C467.733 437.267 475.867 439.133 481.467 440.333C487.067 441.533 499.067 443.4 508.133 444.467C517.2 445.533 528.533 447 533.333 447.533C548.933 449.4 578.267 449.267 593.067 447C622.533 442.733 626.267 442.067 638.667 438.467C645.6 436.333 656.133 433.667 662 432.333C667.867 431 673.867 429.4 675.2 428.6C676.667 427.933 681.733 426.467 686.533 425.4C713.467 419.4 748.4 416.467 780 417.533C815.867 418.867 821.6 419.4 824.133 422.333C825.333 423.667 826.667 427.933 827.067 431.667C828.267 441.533 836.667 465.267 843.733 478.467C850.133 490.733 850.533 495.4 844.933 493.8C831.2 489.667 780.533 485.8 752.267 486.733C712.4 488.067 686.933 493 640 508.467C579.867 528.467 568.267 530.2 526.667 525C513.867 523.533 486.133 518.6 469.733 515.133C461.6 513.4 449.067 511 412.667 504.333C373.467 497.133 305.6 497.133 284.667 504.2C281.733 505.267 275.867 506.867 271.6 507.8C267.333 508.733 263.6 509.933 263.2 510.6C262.8 511.133 261.067 511.667 259.333 511.667C255.6 511.667 256 513 251.333 487.667C246.8 462.2 241.333 435.4 240.667 434.2C240.267 433.667 239.333 430.2 238.667 426.467C236.8 416.733 238.4 413.667 245.6 412.333C260.533 409.667 303.2 409 327.333 411ZM253.333 617.8C253.333 619.667 252.8 620.867 252 620.333C251.333 619.933 250.667 618.333 250.667 616.867C250.667 615.533 251.333 614.333 252 614.333C252.8 614.333 253.333 615.933 253.333 617.8Z" fill="black"/>
<path d="M34.6666 3.5333C21.1999 7.1333 13.4666 13.1333 7.5999 24.6C4.53324 30.3333 4.7999 33.8 8.53323 41.6666C12.2666 49.8 15.0666 52.3333 26.3999 58.3333L35.3332 63L43.0666 78.2C47.1999 86.6 50.6666 93.9333 50.6666 94.5999C50.6666 95.2666 51.7332 97.3999 52.9332 99.2666C54.2666 101.267 55.9999 104.733 56.9332 107C57.7332 109.133 60.2666 115.533 62.3999 121C64.5332 126.467 67.5999 135.8 69.0666 141.667C70.6666 147.533 72.9332 155.933 73.9999 160.333C75.1999 164.733 77.1999 172.867 78.5332 178.467C79.8666 184.067 81.4666 189.4 81.9999 190.333C82.5332 191.133 83.7332 195.267 84.7999 199.4C85.7332 203.667 87.7332 211.133 89.0666 216.333C96.1332 241.533 102.4 264.467 113.333 305.667C114.667 310.733 117.333 320.733 119.2 327.667C121.067 334.6 123.867 344.467 125.2 349.667C126.533 354.733 129.067 363.8 130.667 369.667C132.267 375.533 134.4 383.267 135.333 387C137.333 394.6 142.667 414.467 146.533 428.333C147.867 433.4 150.667 443.667 152.533 450.867C154.533 458.2 156.4 464.6 156.8 465.133C157.067 465.667 157.867 468.733 158.533 471.933C159.2 475.133 161.6 484.6 164 493C171.867 521.667 173.333 527 175.867 537C177.333 542.467 180.267 553.933 182.667 562.333C187.333 579.133 187.867 581.267 196 611.533C198.933 622.867 202 633.133 202.8 634.6C204.533 637.8 210.933 637.667 214 634.333C216.933 631.133 217.733 635.533 204.267 585C202.8 579.533 198.4 563.533 194.667 549.667C190.8 535.667 186.933 521.267 186 517.667C185.067 513.933 183.333 507.4 182.133 503C180.933 498.6 178.667 490.467 177.2 485C175.733 479.533 173.733 471.933 172.667 468.333C166.4 446.467 161.333 426.733 161.333 424.6C161.333 423.4 160.8 421.267 160 419.933C159.333 418.733 157.733 414.067 156.533 409.667C150.267 385.8 143.733 361.533 140.667 350.333C138.667 343.4 136.267 334.333 135.333 330.333C134.4 326.333 132.667 319.933 131.6 316.333C126.667 300.733 123.867 290.467 122 281.667C120.933 276.467 118.8 267.8 117.2 262.333C113.6 249.267 112.667 242.333 114.533 242.333C115.2 242.333 116.533 244.6 117.333 247.533C118 250.333 119.467 253.4 120.533 254.2C121.6 255.133 122.8 257.4 123.2 259.4C123.733 261.4 125.467 265.933 127.2 269.667C134.133 284.6 135.2 287.267 136.8 292.333C138.533 297.933 141.333 305.933 147.333 321.667C149.2 326.733 154 340.6 158 352.333C162.133 364.067 167.2 378.733 169.467 385C171.733 391.267 174.133 398.467 174.8 401C175.6 403.533 177.2 409 178.667 413C186.667 436.467 204.4 497.267 213.333 531.667C214.933 537.933 217.333 547.133 218.8 552.333C220.133 557.4 222.8 568.2 224.667 576.333C226.533 584.333 229.2 595.8 230.667 601.667C232.133 607.533 233.6 615 234.133 618.333C234.667 621.667 235.6 625.133 236.4 626.067C238 628.067 243.6 628.2 249.067 626.2C252.133 625.133 253.867 625.267 256.267 626.467C260.133 628.6 266.933 628.2 268.8 625.667C270.267 623.667 270.133 622.067 265.333 588.333C257.333 530.867 257.333 531.667 261.6 527.667C263.2 526.2 265.6 525 266.933 525C268.267 525 273.067 523.8 277.333 522.333C288 518.733 313.333 514.6 331.067 513.533C352 512.2 390.267 515.933 427.333 522.867C436.933 524.6 449.733 527 456 528.2C462.267 529.4 471.6 531.133 476.667 532.333C513.867 540.2 536.8 543.133 558.8 542.733C584 542.467 590.4 541 641.333 524.333C688.533 509 706.933 505.133 748 502.333C773.467 500.6 822.667 504.467 850.267 510.333C867.067 513.933 868.4 513.8 872.533 508.467C874.4 505.933 876 503.267 876 502.467C876 501.667 872.533 496.067 868.4 489.933C853.333 468.067 844.267 444.2 840.667 416.333C838.8 401.8 838.533 393 839.333 361.667C840 330.067 839.867 322.333 838 311.667C836.8 304.733 835.333 298.467 834.8 297.667C834.133 297 832.933 293.933 832 291C829.6 283.8 822.8 274.067 812 263C807.067 257.8 800.267 249.4 796.8 244.333C789.067 232.6 770.667 207.133 762.4 196.867C753.733 186.067 734.667 157.267 734.667 155.133C734.667 154.2 733.6 151.933 732.267 150.2C729.333 146.333 723.867 131.8 720.133 118.333C717.333 107.8 714.667 81.8 715.067 68.6C715.333 58.8666 713.867 57.5333 701.6 56.3333C696.667 55.8 689.333 55 685.333 54.3333C678.533 53.4 638 55.6666 625.467 57.8C604.667 61.2666 585.467 65 561.333 70.3333C555.067 71.8 547.867 73.2666 545.333 73.6666C542.8 74.0666 535.333 75.6666 528.667 77C477.067 87.6666 437.467 86.6 405.6 73.5333C399.2 71 388 67.4 380.667 65.5333C352.8 58.4666 347.2 57.1333 340.667 56.3333C337.067 55.8 332.267 54.8666 330 54.2C325.467 52.8666 304.8 49.9333 278.667 47C254.533 44.2 193.733 44.2 170 47C148.933 49.4 133.067 51.8 114.933 55.5333C96.6666 59.2666 94.1332 59.1333 90.6666 54.7333C88.3999 51.8 87.9999 49.9333 88.5332 45.6666C91.0666 28.0666 91.0666 26.7333 87.9999 21.2666C83.8666 13.9333 73.0666 6.3333 62.6666 3.39997C52.1332 0.466633 45.8666 0.466633 34.6666 3.5333ZM61.4666 19.6666C74.5332 24.6 77.9999 31.5333 71.3332 39.4C62.2666 50.0666 35.9999 50.0666 25.1999 39.4C20.3999 34.4666 20.2666 30.4666 25.0666 26.0666C34.2666 17.4 48.9332 14.8666 61.4666 19.6666ZM76.6666 61.8C85.4666 70.7333 120.8 135.133 138.667 175C140.267 178.6 142.933 184.6 144.667 188.333C149.733 199.533 154.933 211.667 161.6 228.333C163.067 231.933 165.067 236.733 166 239C166.933 241.133 168.8 245.933 170 249.667C171.333 253.267 173.467 259.267 174.8 263C179.2 275.4 191.6 312.2 195.2 324.333C203.467 351.4 205.067 357.4 212.667 386.333C225.467 435 237.333 496.867 244.667 551.667C245.867 560.867 247.333 570.733 248 573.667C249.467 579.8 252.4 610.467 251.6 611.267C250.133 612.6 246.4 604.067 244.667 595.4C243.6 590.067 241.467 580.867 240 575C238.667 569.133 234.933 554.067 232 541.667C228.933 529.133 225.6 516.333 224.667 513C223.6 509.667 220.933 500.067 218.667 491.667C216.4 483.267 213.733 473.933 212.8 471C211.733 468.067 209.333 459.933 207.333 453C200.8 430.2 174.4 349.533 171.333 342.733C170.267 340.467 169.333 337.4 169.333 336.067C169.333 334.733 168.8 333 168.133 332.2C167.333 331.533 164.4 324.067 161.333 315.667C158.4 307.267 155.067 298.467 154 296.067C152.933 293.8 152 291.533 152 290.867C152 289.933 146.267 274.733 144 269.667C143.333 268.2 140.667 261.533 138.133 254.733C135.467 248.067 132.533 240.6 131.467 238.067C130.4 235.667 128.667 231.533 127.6 229C126.4 226.467 123.467 219.267 120.933 213C114 196.067 100.267 163.8 97.3332 157.667C95.9999 154.733 94.5332 151.4 94.1332 150.333C93.7332 149.267 92.7999 147.4 91.9999 146.333C91.3332 145.267 89.4666 141.267 87.8666 137.667C86.2666 133.933 83.1999 127.133 81.0666 122.333C78.9332 117.533 75.8666 111 74.3999 107.667C73.0666 104.333 71.1999 100.733 70.5332 99.6666C69.8666 98.5999 68.6666 96.1999 67.8666 94.3333C67.0666 92.4666 63.8666 85.6666 60.6666 79.1333C54.1332 66.0666 54.2666 62.4666 61.0666 62.2C63.0666 62.2 65.8666 61.6666 67.3332 61C71.4666 59.2666 74.2666 59.5333 76.6666 61.8ZM277.333 62.4666C320.133 66.6 373.467 78.2 408.133 90.7333C439.467 102.2 481.333 102.467 534.933 91.6666C545.467 89.5333 558.8 86.8666 564.667 85.6666C570.533 84.6 577.733 82.8666 580.667 82.0666C586 80.6 603.733 77.2666 626 73.5333C632.667 72.4666 650.4 71.2666 665.6 70.7333L693.067 69.9333L696.4 73.2666C699.333 76.2 699.733 77.7999 700.4 91.7999C701.067 107.133 706 130.6 710.267 138.733C711.333 140.867 712 144.067 711.733 145.933L711.333 149.267L689.333 149.667C661.067 150.2 645.067 152.067 613.333 158.333C610 159 604.667 159.933 601.333 160.333C598 160.867 591.467 162.333 586.667 163.667C581.867 165 576.267 166.467 574 166.867C571.867 167.4 567.333 168.333 564 169.133C554 171.4 528 175.933 518 177.133C492.267 180.333 438.8 179.8 420.933 176.2C419.333 175.933 412.267 174.733 405.333 173.533C382.933 169.933 371.467 167.8 366 166.467C357.2 164.333 337.333 160.067 327.333 158.333C322.267 157.4 314.667 155.8 310.667 154.733C296.8 151 287.067 149.4 258 145.667C237.333 143.133 219.333 142.333 206.667 143.533C177.467 146.2 160.133 148.867 154.8 151.667L149.467 154.333L146.267 149.933C144.533 147.667 139.6 138.867 135.467 130.467C126.133 111.667 118.667 98.0666 113.467 89.5333C106.667 78.7333 106 77 107.467 74.7333C108.8 72.7333 122.667 69.2666 138 67.1333C141.733 66.6 149.467 65.4 155.333 64.2C177.867 60.0666 242.4 59 277.333 62.4666ZM281.333 232.867C283.2 233.667 294.267 235.4 306 237C317.733 238.6 335.733 241.8 346 244.333C356.267 246.733 369.733 249.8 376 251C388.267 253.4 393.067 254.333 407.333 257.667C416.667 259.8 421.2 260.467 446 264.2C479.2 269 485.867 269.667 504 269.667C530.8 269.667 556.8 265.8 598 255.8C622.4 249.8 637.733 246.333 659.333 241.667C672.133 239 692.667 237.933 732.4 238.067C775.6 238.2 773.867 237.8 783.6 252.333C787.2 257.4 795.067 267 801.2 273.667C813.6 287 818.8 296.6 822.133 312.067C823.867 320.467 823.867 321.667 821.867 324.733C819.867 327.8 819.333 327.933 812.933 326.867C802.267 325 735.6 325.4 724 327.267C718.533 328.2 709.467 329.533 704 330.333C682.8 333.267 674.533 334.733 673.867 335.8C673.467 336.467 671.067 337 668.533 337C665.867 337 662.667 337.667 661.2 338.333C659.867 339.133 652.533 340.867 645.067 342.333C637.467 343.8 628.933 345.533 626 346.2C590.133 354.333 563.6 357.667 528.933 358.2C503.867 358.6 462 354.067 440 348.733C433.733 347.267 421.467 344.6 412.667 342.867C403.867 341.267 390.667 338.2 383.333 336.333C376 334.333 363.067 331.667 354.667 330.333C346.267 328.867 331.6 326.6 322 325C307.067 322.6 301.2 322.2 278.667 322.867C260.933 323.4 250.267 324.333 245.333 325.667C241.333 326.867 234.667 328.333 230.667 329C226.667 329.667 222 330.6 220.533 331C216.933 332.067 212.4 327.667 211.333 321.8C210.4 317.133 198.533 280.067 194.667 269.667C193.2 265.933 190.267 258.333 188 252.467C183.733 241.133 183.067 236.467 185.6 234.733C191.467 231.133 272.667 229.533 281.333 232.867ZM327.333 411C333.2 411.4 338.933 412.2 340 412.6C341.067 413 345.867 413.8 350.667 414.467C355.467 415 362.4 416.067 366 416.867C369.733 417.667 378.667 419.133 386 420.333C393.333 421.533 402.267 423.267 405.867 424.333C409.467 425.4 414.133 426.333 416.133 426.333C418.267 426.333 421.2 426.867 422.933 427.533C427.6 429.4 435.733 431.267 446 433C451.2 433.8 458.933 435.4 463.333 436.333C467.733 437.267 475.867 439.133 481.467 440.333C487.067 441.533 499.067 443.4 508.133 444.467C517.2 445.533 528.533 447 533.333 447.533C548.933 449.4 578.267 449.267 593.067 447C622.533 442.733 626.267 442.067 638.667 438.467C645.6 436.333 656.133 433.667 662 432.333C667.867 431 673.867 429.4 675.2 428.6C676.667 427.933 681.733 426.467 686.533 425.4C713.467 419.4 748.4 416.467 780 417.533C815.867 418.867 821.6 419.4 824.133 422.333C825.333 423.667 826.667 427.933 827.067 431.667C828.267 441.533 836.667 465.267 843.733 478.467C850.133 490.733 850.533 495.4 844.933 493.8C831.2 489.667 780.533 485.8 752.267 486.733C712.4 488.067 686.933 493 640 508.467C579.867 528.467 568.267 530.2 526.667 525C513.867 523.533 486.133 518.6 469.733 515.133C461.6 513.4 449.067 511 412.667 504.333C373.467 497.133 305.6 497.133 284.667 504.2C281.733 505.267 275.867 506.867 271.6 507.8C267.333 508.733 263.6 509.933 263.2 510.6C262.8 511.133 261.067 511.667 259.333 511.667C255.6 511.667 256 513 251.333 487.667C246.8 462.2 241.333 435.4 240.667 434.2C240.267 433.667 239.333 430.2 238.667 426.467C236.8 416.733 238.4 413.667 245.6 412.333C260.533 409.667 303.2 409 327.333 411ZM253.333 617.8C253.333 619.667 252.8 620.867 252 620.333C251.333 619.933 250.667 618.333 250.667 616.867C250.667 615.533 251.333 614.333 252 614.333C252.8 614.333 253.333 615.933 253.333 617.8Z" stroke="black" stroke-width="2" mask="url(#path-1-outside-1_1_4)"/>
</g>
<path d="M3646.4 168C3597.6 168.4 3557.07 169.2 3556.4 169.733C3555.87 170.4 3555.2 248.533 3554.93 343.467C3554.67 505.467 3554.8 516.133 3556.93 518.667C3559.2 521.333 3560.53 521.333 3647.33 521.333C3715.73 521.333 3736 520.933 3737.73 519.6C3739.87 518.133 3740 505.867 3740.13 344.8C3740.13 179.333 3740 171.467 3737.73 169.467C3735.6 167.6 3726.27 167.467 3646.4 168Z" fill="#020166"/>
<path d="M1007.87 176.4C1006 179.6 1005.33 183.2 1005.33 190.667C1005.33 196.133 1004.67 206.267 1004 213.067C1002.4 227.867 1001.33 225.467 1022.27 250.4C1030.53 260.267 1037.73 269.867 1038.27 271.733C1038.67 273.6 1038.4 277.6 1037.47 280.533C1036.53 283.6 1034.8 290.533 1033.33 296C1030.53 306.933 1026 323.867 1021.33 340.667C1019.73 346.533 1017.6 355.2 1016.53 360C1015.47 364.8 1013.73 371.333 1012.8 374.667C1009.73 384.4 1006.93 394.8 1004.53 404C995.333 441.333 995.6 440.8 987.2 449.6C982.8 454.133 974 463.067 967.6 469.333C961.067 475.6 954.933 482.267 954 484.133C951.467 488.8 952.133 509.067 954.8 510.8C957.733 512.667 1104.53 512.133 1107.07 510.267C1109.33 508.533 1109.6 504.133 1109.47 482.4L1109.33 470.8L1099.33 461.067C1093.87 455.733 1089.07 449.733 1088.67 447.867C1088.27 446 1089.07 440.533 1090.53 435.867C1091.87 431.2 1095.6 417.067 1098.67 404.667C1103.87 383.2 1106.53 376 1109.2 376C1109.87 376 1113.6 379.733 1117.6 384.267C1121.47 388.933 1125.33 393.333 1126 394.133C1126.8 394.933 1131.2 399.867 1136 405.333C1147.47 418.133 1145.33 415.867 1162 434C1180 453.467 1177.73 451.067 1187.33 462C1191.73 467.067 1196.4 472.133 1197.6 473.467C1198.8 474.8 1204.8 481.333 1210.93 488.133C1226.8 505.733 1228.27 507.333 1232 509.733C1234.93 511.733 1241.6 512 1300.8 512C1351.73 512 1366.67 511.6 1367.6 510.267C1369.47 507.867 1372.93 495.6 1375.47 483.333C1376.53 477.467 1378.67 467.867 1380 462C1382.93 448.933 1387.33 429.067 1393.87 400C1396.53 387.867 1399.6 374.933 1400.67 371.333C1401.73 367.6 1403.2 361.067 1403.87 356.667C1404.67 352.267 1406.13 345.333 1407.2 341.333C1408.27 337.333 1410 329.2 1411.33 323.333C1412.53 317.467 1414.8 307.867 1416.27 302C1417.73 296.133 1419.47 288.267 1420 284.4C1421.47 274.533 1424.13 270.933 1435.73 262.667C1441.33 258.667 1446.27 255.067 1446.67 254.667C1448.93 252.4 1469.07 237.733 1471.33 236.8C1474.8 235.467 1521.47 234.4 1530 235.467L1536.67 236.267L1579.6 278.933C1603.07 302.533 1623.2 323.067 1624 324.8C1625.73 327.867 1624.27 335.467 1616.13 365.333C1614.67 370.8 1610.8 385.2 1607.6 397.333C1604.4 409.467 1601.33 420.267 1600.93 421.333C1600.4 422.4 1599.47 425.733 1598.8 428.667C1596 440.267 1594.93 443.733 1594.13 445.2C1592.67 447.333 1580.93 454.8 1556 469.067C1543.87 475.867 1533.2 482.533 1532.4 483.733C1530.13 486.533 1530.13 508.267 1532.27 510.4C1534.67 512.8 1851.07 512.667 1853.07 510.267C1855.07 508 1855.47 477.867 1853.6 475.6C1851.6 473.333 1834.27 464.8 1814.67 456.667C1803.2 451.867 1797.6 448.4 1797.07 445.6C1796.8 444.4 1797.33 438.8 1798.27 433.333C1800.13 423.067 1804.67 392.667 1806.67 377.2C1809.2 357.867 1806.53 360.933 1848.93 326.533C1870 309.333 1890 292.933 1893.47 290C1896.93 287.067 1906.27 279.467 1914.13 273.067C1922.13 266.667 1941.6 250.933 1957.33 238C1973.07 225.2 1987.07 214.667 1988.27 214.667C1990.53 214.667 2010.4 232.267 2032.93 254.133C2042.93 263.733 2044 265.333 2044 269.867C2044 272.533 2043.47 275.867 2042.67 277.333C2042 278.667 2040.53 285.067 2039.47 291.467C2036.53 309.2 2031.2 338.533 2029.6 345.333C2028.8 348.667 2026.8 358.8 2025.33 368C2023.73 377.2 2020.93 391.867 2019.2 400.8C2017.47 409.733 2016 418.267 2016 419.867C2016 426 2010.13 433.467 1988.13 455.2C1975.47 467.6 1964.4 479.333 1963.33 481.467C1960.53 486.8 1960.53 507.067 1963.47 509.867C1965.33 511.867 1976.67 512 2076.8 511.733C2168.8 511.333 2188.27 511.067 2189.2 509.467C2189.87 508.533 2190.4 501.333 2190.4 493.467C2190.4 477.6 2189.47 474.933 2179.33 460.933C2176.13 456.533 2173.07 451.333 2172.67 449.2C2171.87 445.733 2174.27 428.667 2177.2 415.867C2178.67 409.333 2180.4 407.2 2191.33 396.933C2201.6 387.6 2205.6 384.933 2208.27 386C2209.73 386.667 2216 395.067 2216 396.4C2216 396.667 2219.33 402.267 2223.33 408.8C2227.33 415.333 2231.47 422.133 2232.27 424C2233.2 425.867 2236.13 430.933 2238.8 435.333C2246.8 448.133 2246.53 449.067 2233.73 462L2223.33 472.267L2222.67 490.4C2222.27 502.933 2222.53 509.067 2223.6 510.533C2224.93 512.4 2236.4 512.667 2336.27 513.067C2431.2 513.333 2447.87 513.067 2450 511.467C2452.53 509.733 2452.67 507.867 2452.67 487.6C2452.53 471.2 2452.13 465.067 2450.8 463.467C2449.47 461.867 2446.53 461.333 2437.87 461.333H2426.8L2418.27 451.6C2413.47 446.4 2406.4 438 2402.53 433.2C2398.53 428.267 2386.4 413.733 2375.33 400.667C2364.4 387.733 2346.4 366.4 2335.33 353.467C2324.4 340.4 2311.6 325.467 2307.07 320.133C2302.4 314.933 2298.67 309.467 2298.67 308C2298.67 305.467 2306.4 298.533 2317.33 291.2C2319.87 289.467 2325.6 285.333 2330 282C2334.4 278.8 2341.07 274 2344.67 271.333C2348.4 268.8 2357.33 262.133 2364.67 256.667C2372 251.2 2381.87 244 2386.67 240.667C2391.47 237.333 2398 232.533 2401.33 230C2413.07 220.8 2413.07 220.8 2451.2 220.4C2470.13 220.267 2486.27 219.6 2486.93 218.933C2487.6 218.267 2487.87 208.267 2487.73 196.667L2487.33 175.467L2484 174.533C2482.13 174 2434.4 173.6 2377.87 173.467C2295.07 173.333 2274.67 173.733 2273.6 175.067C2271.6 177.333 2271.2 209.333 2273.07 212.8C2273.87 214.267 2278 218.667 2282.27 222.8C2293.2 233.067 2293.33 233.733 2285.6 241.2C2269.6 256.4 2253.47 269.333 2250.27 269.333C2247.87 269.333 2244.53 266.667 2237.73 258.933C2227.73 247.733 2224 242.8 2224 240.667C2224 239.867 2228.8 234.4 2234.67 228.667C2240.53 222.8 2246.27 216.4 2247.33 214.4C2249.73 210 2250.27 176.667 2247.87 175.333C2247.07 174.8 2153.73 174.4 2040.4 174.533C1861.87 174.533 1834 174.8 1832.13 176.533C1830.4 178.133 1830.13 180.8 1830.67 193.2L1831.33 207.867L1838.13 217.6C1841.87 223.067 1845.47 228.8 1845.87 230.4C1846.93 233.733 1845.47 235.467 1815.73 263.067C1796 281.467 1792.93 282.933 1788.4 276.533C1787.07 274.667 1782 268.267 1777.07 262.267C1771.2 255.2 1768 250.133 1768 248C1768.13 245.6 1772.27 240.267 1783.47 228.667C1791.87 219.867 1799.73 211.333 1800.8 209.733C1803.87 205.333 1804.27 177.867 1801.2 175.2C1799.47 173.6 1766 173.333 1571.07 173.333C1445.6 173.333 1342.13 173.6 1340.93 174.133C1339.73 174.533 1337.87 178 1336.67 181.733C1335.47 185.6 1333.6 190.533 1332.53 192.933C1331.47 195.2 1330.67 198.133 1330.67 199.333C1330.67 200.533 1329.47 204.4 1327.87 208C1324.13 216.8 1324.8 219.733 1332.67 225.733C1336.4 228.533 1347.33 236.8 1357.07 244.133C1376.53 258.933 1376.8 259.467 1372.8 271.333C1371.87 274.267 1370 280 1368.93 284C1365.2 296.667 1355.73 329.6 1353.2 338.667C1351.87 343.467 1349.87 350.267 1348.93 354C1347.87 357.6 1346.27 363.2 1345.47 366.267C1344.13 371.333 1343.47 372 1340 372C1337.73 372 1335.47 370.933 1334.4 369.467C1333.33 368 1326.93 360.933 1320 353.733C1313.07 346.4 1304.8 337.6 1301.73 334.133C1298.53 330.667 1291.47 322.933 1285.73 316.933C1280.13 310.933 1266.67 296.667 1256 285.467C1245.33 274.133 1230.53 258.533 1223.2 250.8C1215.73 242.933 1206.8 233.333 1203.33 229.333C1197.47 222.667 1174 197.6 1157.47 180.533C1152.93 175.867 1149.33 173.333 1146.27 172.8C1143.87 172.4 1112.27 172 1076.13 172.133L1010.53 172.267L1007.87 176.4Z" fill="#020166"/>
<path d="M2631.73 175.2C2629.47 176.8 2629.33 180.533 2629.33 219.067C2629.33 245.6 2629.87 262.533 2630.8 264.933C2631.47 266.933 2635.33 272.8 2639.2 278C2646.27 287.467 2669.73 319.6 2673.33 324.8C2674.4 326.4 2679.73 333.6 2685.2 340.8C2704 365.733 2718 384.533 2720.27 388C2725.2 395.2 2729.07 400.4 2740.67 415.6C2747.33 424.267 2754.13 433.467 2756 436.133C2757.87 438.8 2764.4 447.733 2770.67 456.133C2787.47 478.533 2806.53 504.4 2813.07 513.333L2818.93 521.333H2933.33C2996.27 521.333 3048.67 520.933 3049.87 520.533C3052.93 519.333 3052.53 517.6 3047.87 512.133C3045.73 509.467 3042.67 505.867 3041.2 504C3033.2 494 3023.6 481.6 3001.07 452.667L2976 420.667V408.533C2976 390.933 2973.73 391.867 3013.87 392C3031.87 392.133 3047.2 391.733 3048 391.333C3048.8 390.8 3049.33 378.133 3049.33 357.467C3049.33 330.667 3048.93 324 3047.47 322.8C3046.13 321.6 3027.6 321.2 2978.93 321.333C2934.93 321.333 2911.07 320.933 2908.53 320C2905.33 318.667 2887.87 301.467 2874.53 286.133L2870.13 280.933L2870.53 266.8C2870.8 257.867 2871.47 252.267 2872.4 251.733C2873.33 251.2 2913.87 250.8 2962.53 250.8C3036.67 250.667 3051.47 250.4 3053.07 248.8C3054.53 247.333 3054.93 240.4 3054.67 211.867C3054.67 188.8 3054 176.267 3053.07 175.067C3050.93 172.4 2635.2 172.667 2631.73 175.2Z" fill="#020166"/>
<path d="M3222.13 175.467C3220.93 176.533 3220 178.533 3219.87 179.733C3219.87 180.933 3219.6 195.733 3219.47 212.667C3219.2 242.533 3219.87 248.933 3223.07 250.933C3224 251.467 3264.13 252 3312.27 252C3390.13 252 3400 251.733 3401.87 249.867C3403.73 248.133 3404 242.8 3404 212.133C3404 186.267 3403.6 176.133 3402.4 174.933C3401.2 173.733 3379.33 173.333 3312.53 173.333C3234 173.333 3224 173.6 3222.13 175.467Z" fill="#020166"/>
<path d="M3221.33 295.2C3220.13 296.667 3219.87 323.6 3219.87 406.267C3219.87 466.4 3220.27 516.4 3220.67 517.6C3221.2 518.8 3222.8 520.133 3224.4 520.533C3226 520.933 3266.13 521.333 3313.47 521.333C3380.27 521.333 3400 520.933 3401.73 519.6C3403.87 518.133 3404 509.6 3404 407.467C3404 326.533 3403.6 296.533 3402.53 295.2C3400.13 292.4 3223.73 292.4 3221.33 295.2Z" fill="#020166"/>
<path d="M2444.8 328.267C2443.07 330.8 2442.67 336 2442.67 358.667C2442.67 378.533 2443.07 386.8 2444.4 388.4C2445.87 390.533 2452.4 390.667 2522.93 390.8C2565.2 390.933 2600.4 390.533 2601.2 390C2602.13 389.467 2602.67 378.8 2602.67 358.133V326.933L2599.73 326.133C2598 325.733 2562.93 325.333 2521.73 325.333H2446.8L2444.8 328.267Z" fill="#020166"/>
<path d="M3218 604.4C3203.07 607.6 3187.6 614.533 3177.33 622.4C3164.67 632.267 3150.27 650.4 3147.87 659.2C3147.33 661.467 3145.87 667.2 3144.67 672C3139.73 691.467 3147.47 715.6 3163.47 731.2C3170.67 738.267 3189.73 745.333 3201.2 745.333C3211.2 745.2 3238.4 740.267 3243.47 737.6C3247.07 735.733 3247.2 735.333 3258.67 696.667C3261.33 687.6 3264.67 682.533 3270.8 678.267C3272.4 677.067 3273.33 675.6 3272.8 674.933C3272 673.467 3220.8 673.467 3219.33 674.933C3217.87 676.4 3219.87 678.533 3225.07 681.067C3229.6 683.2 3230 683.867 3229.87 688.667C3229.6 695.333 3227.47 704.8 3224.8 710.8C3223.73 713.333 3221.87 719.333 3220.67 724.133C3218.13 734.4 3216 736 3204.67 736C3191.87 736 3184.8 731.333 3179.07 718.667C3174.53 708.933 3173.33 688.4 3176.67 677.333C3177.87 673.333 3179.33 667.867 3179.87 665.2C3180.4 662.667 3181.87 658.8 3182.93 656.533C3184.13 654.4 3186.13 650.267 3187.47 647.333C3200.4 619.6 3228.53 604.8 3251.87 613.333C3255.73 614.667 3259.07 616.133 3259.33 616.267C3259.47 616.533 3260.8 618.533 3262.4 620.8C3264 623.2 3266.27 629.467 3267.33 634.8C3268.53 640.133 3269.6 644.667 3269.87 644.933C3270.13 645.2 3271.6 644 3273.07 642.133C3274.8 639.867 3276 635.467 3276.67 629.733C3277.2 624.667 3278.4 618.267 3279.47 615.333C3282.13 607.467 3281.87 605.333 3278.13 605.333C3276.27 605.333 3273.33 605.867 3271.47 606.667C3269.07 607.467 3266.27 607.333 3261.73 605.867C3252.93 603.2 3228 602.267 3218 604.4Z" fill="#020166"/>
<path d="M3696.67 604C3677.47 607.867 3656.4 620.267 3642.67 635.733C3628.93 651.333 3622.67 666.667 3621.73 686.667C3621.2 698.533 3621.6 701.867 3623.87 708.667C3631.87 731.2 3650.27 744 3674.93 744C3693.73 744 3707.33 738.4 3718.8 726.133C3721.6 723.067 3725.33 719.333 3726.93 717.6C3729.07 715.467 3729.47 714.267 3728.4 713.2C3727.2 712 3724.27 713.867 3717.07 719.733C3704.27 730.267 3699.2 732.4 3686 732.4C3673.6 732.533 3667.6 730.267 3661.2 723.067C3655.2 716.133 3654.27 712.8 3654.27 696C3654.13 684.133 3654.8 678.533 3656.93 671.067C3665.07 643.467 3679.33 622.533 3695.33 615.2C3704.67 610.8 3719.73 610.8 3727.33 615.067C3733.07 618.267 3740 629.6 3740 635.6C3740 639.333 3742.27 644 3743.87 644C3745.6 644 3747.6 637.733 3750.53 623.333C3752 616 3753.47 609.067 3754 607.733C3755.33 604.4 3749.87 603.2 3746.67 606C3743.87 608.533 3739.33 608.267 3726 604.8C3717.6 602.533 3705.6 602.267 3696.67 604Z" fill="#020166"/>
<path d="M1247.33 608.933C1245.2 611.733 1241.33 616.4 1238.8 619.467C1236.13 622.4 1230.13 629.6 1225.33 635.333C1220.53 641.2 1215.07 647.467 1213.2 649.467C1211.2 651.467 1207.87 655.333 1205.87 658.133C1203.73 660.933 1200.67 664.667 1198.93 666.533C1197.2 668.4 1192.53 674.133 1188.27 679.333C1184.13 684.4 1178 691.733 1174.67 695.467C1171.33 699.067 1162.67 709.067 1155.47 717.6C1145.87 728.933 1140.8 733.6 1137.07 735.067C1134.13 736.267 1132 738 1132 739.2C1132 741.067 1134.4 741.333 1149.2 741.333C1169.47 741.333 1171.6 740.133 1162.4 734.267C1157.33 731.067 1157.73 727.333 1164.13 719.333C1167.07 715.6 1171.47 709.867 1174.13 706.4C1180 698.533 1183.73 697.333 1203.33 697.467C1223.6 697.6 1224.27 698.133 1223.2 712.4C1222.4 724.267 1220.53 732.133 1218.13 733.733C1217.33 734.267 1214.4 735.333 1211.73 736C1208.8 736.8 1206.67 738.267 1206.67 739.467C1206.67 741.067 1210.53 741.333 1233.6 741.067C1253.47 740.8 1260.53 740.267 1260.93 739.067C1261.33 738.133 1260 736.667 1258.13 735.867C1252.53 733.333 1251.47 727.333 1252.53 704.667C1253.6 679.467 1255.33 626.267 1255.33 614C1255.33 602.667 1253.07 601.2 1247.33 608.933ZM1225.87 655.467C1225.47 667.333 1223.47 684.267 1222.13 686C1221.07 687.333 1217.2 688.133 1208.67 688.533C1196 689.067 1193.33 688.667 1193.33 686.133C1193.33 685.333 1198.53 678.667 1204.8 671.333C1211.07 664 1217.73 656.267 1219.47 654.267C1223.33 649.6 1226 650.133 1225.87 655.467Z" fill="#020166"/>
<path d="M1314.67 604.933C1308.93 606.667 1308.93 606.667 1310.67 608.667C1311.6 609.733 1313.33 610.667 1314.67 610.667C1318.27 610.667 1321.33 615.067 1321.33 620.267C1321.33 624.667 1319.07 634.133 1314.13 651.333C1313.07 654.933 1310.4 664.533 1308 672.667C1305.73 680.667 1302.67 691.2 1301.2 696C1299.73 700.8 1297.47 708.667 1296.13 713.6C1292.27 727.333 1288.4 733.333 1281.47 735.867C1278.4 737.067 1275.73 738.533 1275.87 739.333C1276 740.133 1286.67 740.667 1305.07 740.667C1329.47 740.667 1334 740.4 1334 738.667C1334 737.6 1332.13 736.4 1329.33 735.867C1321.07 734.133 1320.27 730.667 1324.67 714.667C1330.13 694.4 1334.8 678.133 1335.47 677.067C1336.67 675.2 1340.8 675.867 1343.2 678.533C1344.4 679.867 1346.93 686.667 1348.8 693.467C1350.8 700.4 1352.8 707.733 1353.47 710C1354 712.133 1356.13 719.333 1357.87 725.867C1359.73 732.4 1361.87 738.4 1362.67 739.2C1364.8 741.333 1401.6 741.2 1402.27 738.933C1402.67 738 1401.33 737.067 1399.07 736.533C1394.13 735.6 1391.47 733.467 1389.07 728.667C1387.07 724.8 1382.13 709.867 1378.67 697.333C1377.73 694 1376.13 688.933 1375.07 685.867C1371.33 675.2 1372.93 672.4 1385.33 667.733C1391.33 665.6 1399.47 658.267 1404.27 650.8C1407.33 645.733 1408 643.333 1408 636C1408 628.267 1407.47 626.533 1403.33 620.4C1395.07 608 1382.8 605.067 1342.67 605.6C1329.73 605.733 1318.67 605.467 1318 605.067C1317.2 604.667 1315.73 604.667 1314.67 604.933ZM1369.07 617.333C1374.53 620.667 1376 624.533 1376 635.067C1375.87 652.133 1366.4 664.267 1350.53 667.867C1345.73 668.933 1344.27 668.8 1342.4 667.067C1341.07 665.867 1340 664.267 1340 663.467C1340 660.267 1353.87 616.667 1355.2 615.733C1357.87 613.867 1364.67 614.667 1369.07 617.333Z" fill="#020166"/>
<path d="M1679.6 605.067C1648.67 605.467 1646.13 606.133 1656.4 610.933C1665.47 615.333 1665.6 618.933 1657.87 644.667C1652.67 661.6 1650.8 668.267 1649.2 674.533C1648.4 677.733 1647.33 681.333 1646.67 682.533C1646 683.733 1644.8 687.333 1644.13 690.667C1643.47 694 1641.87 699.6 1640.67 703.333C1639.6 706.933 1637.33 714.133 1635.73 719.2C1631.87 731.2 1629.47 734 1621.33 736C1617.33 736.933 1614.8 738.267 1615.07 739.2C1615.47 740.267 1624.4 740.667 1646.13 740.667C1672.4 740.667 1676.67 740.4 1676.67 738.667C1676.67 737.467 1675.07 736.533 1672.67 736.267C1670.53 736 1667.87 735.2 1667.07 734.4C1664.4 732.133 1665.07 721.067 1668.53 709.733C1670.4 704 1674.53 689.067 1678 676.667C1681.47 664.133 1684.8 652.133 1685.47 650C1686.27 647.733 1688 641.6 1689.47 636.133C1694 619.2 1699.2 612 1708 610C1712.93 608.933 1714.13 607.2 1711.07 605.733C1709.73 605.2 1695.6 604.8 1679.6 605.067Z" fill="#020166"/>
<path d="M1915.2 605.733C1912.4 607.333 1915.07 610.267 1920.13 611.333C1925.87 612.667 1927.07 616.933 1924.67 627.067C1922.53 636.667 1917.6 654.4 1912.67 670.667C1909.2 682 1908.27 685.2 1902.27 706.667C1897.47 723.733 1892.8 732.667 1887.6 734.667C1878.53 738 1877.33 738.667 1877.33 740C1877.33 742.133 1985.47 741.867 1988.53 739.6C1991.33 737.467 2002.67 712.667 2002.67 708.4C2002.67 706.8 2002 705.333 2001.33 705.333C2000.53 705.333 1996.13 708.933 1991.6 713.333C1987.07 717.733 1982.8 721.333 1982.27 721.333C1981.6 721.333 1979.47 722.4 1977.6 723.733C1968.4 730 1943.07 734.933 1933.33 732.4L1928.67 731.2V723.2C1928.8 715.467 1938.67 679.067 1941.87 674.933C1942.8 673.6 1946.13 673.2 1954.13 673.6C1968.4 674.133 1972.13 676.533 1974.13 686.8C1975.6 694.533 1978.93 696.8 1979.73 690.667C1980.27 686.667 1987.33 661.467 1990.27 653.6C1992 649.2 1992 647.467 1990.8 646.267C1989.6 645.067 1988.93 645.2 1988.13 646.667C1981.6 658 1973.87 663.067 1959.6 665.333C1944.93 667.6 1942.93 665.067 1948 650C1949.33 645.6 1952.13 636.267 1954 629.333C1955.87 622.4 1958.4 615.867 1959.73 614.933C1963.07 612.267 1988.53 613.467 1995.07 616.667C2001.33 619.6 2006.67 625.867 2006.67 630.133C2006.67 633.867 2008.8 638.667 2010.53 638.667C2012 638.667 2014.67 632.533 2014.67 629.333C2014.67 627.867 2016 622.8 2017.6 618C2020 610.4 2020.13 608.933 2018.53 607.333C2017.07 605.867 2007.2 605.467 1966.93 605.067C1939.47 604.8 1916.27 605.2 1915.2 605.733Z" fill="#020166"/>
<path d="M2435.6 605.067C2431.73 605.867 2431.87 609.333 2435.73 610.8C2437.73 611.6 2440.27 612.667 2441.33 613.333C2444.4 614.8 2444.53 623.6 2441.6 633.333C2440.13 638.133 2437.6 646.8 2436 652.667C2434.4 658.533 2431.6 668.4 2429.73 674.667C2428 680.933 2425.2 690.133 2423.73 695.333C2422.27 700.4 2420.27 706.8 2419.33 709.333C2418.4 711.867 2416.67 717.333 2415.47 721.333C2412.67 731.2 2411.2 732.933 2403.47 735.733C2400 736.933 2397.07 738.533 2397.2 739.333C2397.33 741.067 2452.67 741.867 2455.73 740.133C2458 738.8 2456.27 737.733 2446.4 734.267C2442.27 732.8 2442.8 728.133 2450.8 701.333C2452.8 694.4 2454.93 686.4 2455.33 683.6C2456.13 679.733 2457.07 678.4 2459.73 677.733C2464.27 676.667 2467.2 678.8 2468.27 684.133C2468.67 686.667 2470 691.333 2471.07 694.667C2472.13 698 2474.4 705.467 2476 711.333C2480.53 727.2 2484 737.733 2485.6 739.6C2487.73 742.267 2560.4 742 2562.53 739.467C2563.73 738 2563.07 737.2 2559.33 735.467C2553.2 732.533 2553.2 728.667 2559.47 719.6C2565.73 710.4 2576.93 698.667 2579.73 698.4C2580.93 698.4 2589.6 698.133 2598.93 698C2620.93 697.733 2620.8 697.6 2618.8 714.533C2616.93 729.733 2615.6 732.933 2611.07 734.8C2604.93 737.2 2603.47 738.133 2602.93 739.733C2602.53 740.933 2608.93 741.333 2627.73 741.333C2659.07 741.333 2662.27 740.533 2652.67 734.8L2648 732.133L2648.13 713.733C2648.13 697.2 2648.93 678.8 2651.73 623.333C2653.07 598.533 2651.87 598.267 2634.53 618.933C2621.47 634.8 2613.47 644.267 2609.47 648.667C2607.07 651.333 2571.07 694.4 2563.33 703.733C2552 717.733 2543.07 727.733 2538.53 731.467C2531.87 737.067 2524.27 738.267 2517.6 734.8C2511.33 731.6 2509.2 726.4 2497.33 685.6C2494.4 675.467 2495.07 670.667 2499.47 670.667C2504.13 670.667 2517.07 662.533 2522 656.667C2530.8 645.867 2532.8 635.733 2528.13 625.067C2525.07 617.867 2519.87 613.067 2511.33 609.2C2505.2 606.4 2502.27 606.133 2471.2 605.467C2452.8 604.933 2436.8 604.8 2435.6 605.067ZM2490.53 616.667C2497.87 620.4 2500.8 634.933 2496.67 646.667C2494.13 653.6 2487.6 662.133 2482.53 664.8C2480.4 665.867 2475.87 667.2 2472.53 667.867C2467.73 668.8 2466 668.533 2463.73 666.667C2460.8 664.4 2460.8 664.267 2463.07 659.2C2464.27 656.267 2466.13 650.533 2467.2 646.4C2468.27 642.267 2469.73 637.733 2470.4 636.4C2471.07 635.067 2472.4 630.4 2473.33 626C2474.27 621.6 2476 617.2 2477.07 616.267C2479.87 614.133 2486 614.267 2490.53 616.667ZM2620.67 651.867C2621.07 652.667 2620.93 660.667 2620.53 669.867C2619.47 689.333 2620.67 688 2602.53 688.667C2587.73 689.067 2586.13 687.867 2592.8 680.533C2595.33 677.733 2602.13 669.733 2607.73 662.933C2618 650.667 2619.2 649.6 2620.67 651.867Z" fill="#020166"/>
<path d="M3108.4 605.067C3104.4 605.6 3104.53 607.2 3109.07 610.133C3118.13 616 3119.07 619.867 3114.67 634.4C3113.07 639.333 3110.67 647.467 3109.2 652.667C3107.73 657.733 3105.47 665.6 3104 670C3102.53 674.4 3101.33 679.333 3101.33 680.8C3101.33 682.4 3100.27 685.067 3098.93 686.667C3096.93 689.2 3096 689.467 3093.73 688.133C3092.13 687.333 3090.4 685.333 3090 683.733C3089.07 680.667 3086.13 674.4 3068.93 638.667C3064.27 628.8 3059.87 619.2 3059.33 617.333C3058.8 615.467 3056.8 612 3054.93 609.6L3051.73 605.333H3030.53C3018.8 605.333 3009.33 605.867 3009.33 606.533C3009.33 607.2 3012.8 609.467 3017.07 611.467L3024.67 615.333L3024.53 622C3024.53 625.733 3022.67 634.667 3020.4 642C3018.13 649.333 3014.67 660.667 3012.67 667.333C3010.67 673.867 3007.87 683.2 3006.53 688C3005.07 692.8 3002.8 700.4 3001.33 704.933C2999.87 709.467 2998.67 714.267 2998.67 715.6C2998.67 717.067 2997.07 721.333 2995.2 725.067C2991.73 732 2988.4 734.8 2980.93 736.533C2978.8 737.067 2977.33 738.133 2977.73 739.067C2978.4 741.067 3014.4 742.133 3016.4 740.133C3017.2 739.333 3015.6 737.733 3011.6 735.867C3007.07 733.6 3005.2 731.867 3004.67 729.067C3003.87 725.6 3006.4 714.4 3011.6 698.667C3012.67 695.333 3014.13 690 3014.8 686.667C3015.47 683.467 3017.2 677.2 3018.67 672.667C3021.73 663.067 3025.87 649.333 3027.87 642C3029.47 635.733 3033.87 632.267 3036.8 634.8C3037.87 635.6 3038.67 637.2 3038.67 638.267C3038.67 639.2 3040.53 644.133 3042.8 649.067C3050.8 666.133 3056.4 678.133 3066 698C3071.2 708.933 3077.6 722.533 3080 728C3085.6 740.533 3087.07 742.4 3089.87 740C3091.07 739.067 3092.67 735.867 3093.33 732.8C3095.07 726.133 3099.47 711.2 3102.67 701.333C3104 697.333 3106.93 687.333 3109.33 679.333C3111.6 671.2 3114.4 662 3115.47 658.667C3116.4 655.333 3119.07 646.4 3121.33 638.667C3123.73 630.933 3126.13 622.933 3126.93 620.933C3128.4 617.067 3136.93 610.667 3140.53 610.667C3141.47 610.667 3143.07 609.733 3144 608.667C3145.33 607.067 3145.2 606.533 3143.73 606C3141.73 605.2 3112.8 604.4 3108.4 605.067Z" fill="#020166"/>
<path d="M3439.33 605.333C3415.87 605.867 3411.33 606.267 3411.33 608C3411.33 609.6 3413.87 610.933 3420.93 612.8C3424 613.6 3424.4 620.267 3422 630.533C3420.8 636.133 3419.2 641.2 3418.67 642C3418.13 642.667 3416.8 646.933 3415.87 651.333C3414.93 655.733 3413.47 660.933 3412.4 662.933C3411.47 664.933 3410.67 667.867 3410.67 669.6C3410.53 671.333 3409.6 675.067 3408.53 678C3407.33 680.933 3405.87 686.267 3405.07 690C3404.4 693.6 3402.93 698.133 3402 700C3401.07 701.867 3399.6 706.533 3398.8 710.533C3398 714.533 3395.73 721.333 3393.87 725.467C3390.4 733.2 3388.53 734.667 3379.6 736.667C3377.47 737.067 3376 738.133 3376.4 739.067C3377.07 741.2 3435.73 742.133 3437.87 740C3439.73 738.133 3436.53 736 3431.87 736C3429.87 736 3427.6 735.067 3426.67 734C3424.4 731.333 3425.6 719.2 3429.2 708C3432.8 696.933 3439.87 672.933 3441.47 666C3442.13 663.067 3443.87 656.8 3445.33 652C3456.27 615.333 3456.67 614.533 3466.53 610.667C3472.67 608.4 3473.73 606.533 3469.73 605.333C3468.4 604.933 3454.8 604.933 3439.33 605.333Z" fill="#020166"/>
<path d="M3489.87 605.733C3486.8 607.467 3487.73 608.8 3493.33 610.667C3502.93 613.867 3506.13 619.6 3502.8 628.267C3501.6 631.6 3498.27 642.533 3492.67 662C3490.67 668.533 3488 677.867 3486.53 682.667C3481.2 700.667 3478.8 708.8 3477.33 714.667C3473.47 728.933 3469.6 733.733 3459.07 736.667C3457.33 737.067 3456 738.4 3456 739.333C3456 740.8 3459.87 741.333 3474.13 741.6C3490.8 742 3494.67 741.333 3494.67 738.4C3494.67 737.867 3492.53 736.533 3490 735.467C3482.13 732.133 3481.2 725.6 3486.67 709.333C3488 705.333 3490.4 697.2 3492 691.333C3493.6 685.467 3496.13 677.067 3497.47 672.667C3502.13 657.467 3506.53 642 3506.93 638.667C3507.2 636 3508.13 635.333 3511.07 635.333C3514.67 635.333 3515.47 636.533 3523.73 654C3537.2 682.267 3544.67 698.133 3550.67 711.333C3553.73 717.867 3558 727.067 3560 731.6C3562.13 736 3564.53 740.133 3565.33 740.667C3567.73 742.133 3570.4 738.933 3571.87 732.933C3572.53 729.867 3574 724.267 3575.2 720.667C3576.27 716.933 3578.4 710.133 3579.87 705.333C3582.67 696.267 3590.27 670.667 3594.67 656C3606.27 616.533 3607.6 614.267 3620.4 610.133C3621.6 609.733 3622.67 608.8 3622.67 608C3622.67 605.6 3617.47 604.533 3609.6 605.467C3605.47 605.867 3598 606 3593.07 605.6C3583.07 604.933 3581.73 606.133 3587.73 610.533C3595.2 616.133 3595.07 616 3594.27 624.933C3594 629.6 3592.13 638.267 3590.27 644.4C3586.13 657.333 3582 671.733 3580 679.6C3578.27 686.4 3573.73 691.333 3571.2 689.2C3570.27 688.4 3568.8 685.733 3568 683.2C3567.07 680.533 3563.07 671.467 3559.07 662.933C3555.07 654.4 3550.27 644 3548.4 640C3535.47 611.867 3532.53 606.533 3530 606C3525.07 604.933 3491.87 604.667 3489.87 605.733Z" fill="#020166"/>
<path d="M989.6 607.467C989.867 608.8 992.4 610.4 995.867 611.467C999.067 612.4 1002.27 614 1002.8 614.933C1004.53 617.6 1004.13 624.267 1002.13 628.133C1001.2 630.133 999.6 634.933 998.667 638.8C997.733 642.8 996.267 648 995.2 650.4C994.133 652.8 993.333 655.6 993.333 656.8C993.333 657.867 991.867 663.333 990 669.067C988.267 674.667 985.467 683.867 983.867 689.333C972.933 727.733 970.533 732.533 962.267 734.8C959.2 735.733 955.867 737.2 954.8 738.133C953.2 739.6 953.333 740 956.133 741.067C960.4 742.533 993.333 741.067 993.467 739.333C993.6 738.667 991.333 736.8 988.533 735.333C983.467 732.667 983.333 732.533 983.467 725.333C983.467 721.333 984.8 713.467 986.4 708C992.533 686.667 995.867 674.667 1000.4 658.267C1002.93 648.933 1005.47 640.8 1005.87 640.267C1006.4 639.867 1007.87 640.133 1009.07 640.8C1011.6 642.4 1013.33 654 1015.87 684C1016.67 693.2 1018 705.733 1018.8 712C1019.47 718.267 1020.53 726.8 1020.93 731.067C1022 742.4 1026.27 742.8 1032.13 732.133C1033.6 729.467 1040.13 719.867 1046.67 710.667C1053.33 701.467 1062.53 688.267 1067.33 681.333C1072 674.4 1078.4 665.2 1081.33 660.8C1084.27 656.533 1086.67 652.533 1086.67 652C1086.67 650.267 1096.4 641.333 1098.27 641.333C1100.27 641.333 1100.53 646.933 1098.67 648.8C1098 649.467 1096.8 652.8 1096.13 656C1095.47 659.333 1094 664.667 1092.8 668C1091.73 671.333 1089.47 678.533 1088 684C1086.4 689.467 1084.27 696.667 1083.2 700C1082.13 703.333 1080.4 709.067 1079.47 712.8C1077.47 720.533 1072.67 731.067 1070.13 733.333C1069.07 734.133 1065.73 735.2 1062.53 735.733C1058.67 736.4 1056.67 737.467 1056.67 738.667C1056.67 740.4 1061.33 740.8 1085.33 741.333C1107.07 741.867 1114.4 741.6 1115.73 740.4C1118.13 738.133 1116.93 736.533 1112.13 735.6C1106.4 734.4 1105.07 731.067 1106.8 721.733C1107.6 717.467 1108.67 713.333 1109.33 712.667C1109.87 711.867 1110.8 709.2 1111.33 706.667C1111.73 704.133 1113.33 698.4 1114.67 694C1116 689.6 1118.4 681.467 1119.87 676C1123.73 662.267 1126.93 651.333 1132.67 632.933C1136.93 619.067 1138 616.933 1141.73 614.533C1144.13 613.067 1147.47 611.6 1149.33 611.067C1153.07 610.133 1156.27 607.333 1155.07 606.133C1154.53 605.733 1144.8 605.333 1133.2 605.333C1109.6 605.333 1111.07 604.8 1103.33 616.533C1100.8 620.267 1096 627.2 1092.67 632C1089.2 636.8 1082.67 646.4 1077.87 653.333C1054.4 687.867 1050.13 693.333 1047.2 693.333C1045.07 693.333 1044.27 689.467 1042.67 668C1041.87 658.133 1040.67 647.333 1040 644C1039.33 640.667 1038.4 632 1038 624.667C1036.53 604.533 1037.73 605.333 1011.2 605.333C991.467 605.333 989.2 605.6 989.6 607.467Z" fill="#020166"/>
<path d="M1445.87 606.8C1444.93 608.533 1446.4 610.667 1448.67 610.667C1452.13 610.667 1457.33 613.733 1458.13 616.267C1459.33 620.133 1456.4 633.2 1447.33 662.667C1446.4 666 1444 674.4 1442 681.333C1427.47 732.533 1427.2 733.333 1416 736.133C1402.8 739.467 1409.2 740.667 1441.33 740.667C1464.53 740.667 1472.53 740.267 1472.93 739.067C1473.33 738.133 1471.87 737.067 1469.73 736.533C1462.4 734.933 1461.33 734.4 1460 732C1458.53 729.333 1460 720 1463.33 710C1464.27 707.067 1466.4 700.267 1467.87 694.933C1469.47 689.733 1471.87 681.333 1473.2 676.267C1474.67 671.333 1477.73 660.4 1480 652C1486.13 629.6 1490.4 618 1493.73 614.933C1495.33 613.467 1499.2 611.2 1502.27 610C1505.47 608.667 1507.6 607.2 1507.2 606.533C1506.27 604.933 1446.93 605.2 1445.87 606.8Z" fill="#020166"/>
<path d="M1528.67 607.2C1527.33 608.133 1525.07 612.8 1523.6 617.467C1518.53 634.667 1517.2 640.267 1517.73 640.8C1518.93 642 1522.53 639.733 1523.33 637.333C1523.73 636 1527.33 631.6 1531.2 627.733C1536.93 622 1540.13 620 1547.6 617.6C1558.53 614.133 1562.4 613.867 1563.6 616.8C1564.4 618.933 1558.67 641.067 1555.2 649.067C1554.13 651.467 1553.33 654.533 1553.33 656C1553.33 657.467 1552.53 660.933 1551.47 663.6C1550.4 666.4 1548 674 1546 680.667C1544.13 687.2 1541.33 696 1540 700C1538.67 704 1537.2 709.467 1536.67 712C1536.13 714.533 1534.13 720.4 1532.4 724.933C1528.93 733.6 1528.27 734.133 1516.93 736.533C1514.8 737.067 1513.33 738.133 1513.73 739.067C1514.13 740.267 1522.27 740.8 1544.53 741.067C1572.4 741.333 1574.8 741.2 1574.4 739.067C1574.13 737.867 1572.27 736.4 1570.27 735.867C1561.07 733.333 1560.8 730 1568.53 704.933C1571.07 696.667 1574.93 683.333 1577.33 675.333C1579.73 667.2 1582.4 658.267 1583.33 655.333C1584.4 652.4 1587.07 643.067 1589.47 634.667C1591.73 626.267 1593.87 618.667 1594.13 617.733C1594.4 616.8 1596.13 615.733 1598 615.2C1608 612.667 1621.33 621.733 1621.33 631.067C1621.33 642.933 1625.47 642.933 1629.07 630.933C1634.13 614.133 1635.2 607.867 1633.2 606.533C1632.13 605.867 1608.8 605.333 1581.2 605.333C1540.93 605.333 1530.67 605.733 1528.67 607.2Z" fill="#020166"/>
<path d="M1730.93 607.6C1731.2 609.067 1733.47 610.533 1736.67 611.467C1743.87 613.467 1746.67 618.133 1744.27 624.267C1742.4 628.933 1740.4 635.467 1735.33 652.667C1733.73 658.533 1730.67 668.667 1728.67 675.333C1726.67 681.867 1724.53 689.067 1724 691.333C1713.87 728.133 1711.33 732.933 1699.6 736.133C1696.67 736.933 1694.67 738.133 1695.07 739.067C1695.47 740.267 1701.07 740.667 1714.67 740.667C1735.2 740.667 1738.93 739.333 1729.47 735.6C1721.47 732.4 1721.07 728.667 1726.8 708.667C1728.27 703.467 1730.67 695.467 1732 690.667C1733.47 685.867 1735.87 677.733 1737.33 672.667C1738.93 667.467 1741.33 659.067 1742.67 653.733C1744.13 648.4 1746.27 642.533 1747.47 640.667C1749.6 637.467 1749.87 637.467 1751.33 639.6C1752.27 640.933 1753.33 648.933 1753.87 658C1754.4 666.8 1755.47 677.6 1756.13 682C1756.8 686.4 1758.27 700.133 1759.47 712.533C1762.27 744.4 1763.73 746 1774.53 729.6C1778.27 724 1784.8 714.533 1788.93 708.667C1801.47 690.8 1808.13 681.333 1818.4 666.133C1831.33 646.933 1834.93 642.667 1837.73 642.667C1840.8 642.667 1840.67 644.533 1836.67 656.133C1834.93 661.6 1832.93 668.4 1832.13 671.333C1830.93 676.533 1828.13 686.133 1820.8 711.067C1814.8 731.467 1812.53 734.267 1800.27 736.667C1797.73 737.2 1796.13 738.267 1796.4 739.067C1797.07 741.333 1857.6 741.333 1858.27 739.067C1858.67 738.133 1857.2 737.067 1855.07 736.533C1853.07 736 1850.27 734.667 1848.93 733.467C1846 731.067 1846.53 725.333 1850.93 710C1852.27 704.8 1854.93 695.2 1856.8 688.667C1858.53 682 1861.2 673.067 1862.67 668.667C1864.13 664.267 1866.13 657.333 1867.2 653.333C1873.87 627.6 1877.33 618.533 1882.13 614.533C1883.33 613.467 1886.8 611.733 1889.73 610.667C1900.53 606.667 1897.33 605.6 1874.67 605.6L1853.33 605.733L1848.93 610.667C1844.53 615.867 1838.8 623.733 1824.67 644.667C1791.73 693.067 1789.33 696 1786.67 690.667C1786.13 689.6 1784.67 680.533 1783.47 670.667C1782.27 660.8 1781.07 650.8 1780.8 648.667C1780.4 646.4 1779.87 637.867 1779.47 629.733C1778.67 614.667 1777.2 608.267 1774.27 606.4C1773.33 605.867 1763.2 605.333 1751.6 605.333C1732.27 605.333 1730.53 605.6 1730.93 607.6Z" fill="#020166"/>
<path d="M2102.13 606.533C2101.07 608.133 2103.87 610.267 2108.4 611.333C2115.07 613.067 2115.73 620.4 2110.53 636.667C2109.2 641.067 2106.53 650 2104.67 656.667C2102.8 663.2 2100.13 672.533 2098.67 677.333C2097.2 682.133 2094.8 690.533 2093.2 696C2083.6 729.6 2081.33 734.267 2073.33 735.467C2067.73 736.4 2064.13 739.067 2066.67 740.667C2068.27 741.733 2169.2 741.6 2174.4 740.533C2177.6 739.867 2178.8 738.267 2181.87 730.933C2183.87 726 2186.8 719.2 2188.27 715.867C2189.73 712.533 2190.67 708.4 2190.4 706.667C2190 703.733 2189.33 704.133 2181.07 712.133C2175.73 717.467 2168.8 722.533 2163.47 725.2C2150.13 731.733 2125.33 735.6 2118.67 732C2113.33 729.2 2113.6 726.267 2123.47 693.733C2130 671.733 2128.8 672.933 2141.73 673.6C2156.27 674.133 2160.67 677.067 2162.27 687.067C2164 697.733 2166.53 696.133 2170 682C2171.73 675.333 2174.67 665.067 2176.67 658.933C2181.33 644.667 2179.87 642.533 2172.13 652.4C2165.87 660.533 2161.07 663.2 2147.6 665.333C2135.6 667.2 2132.67 665.867 2133.87 658.533C2134.27 655.733 2135.47 650.8 2136.53 647.733C2137.6 644.533 2140 636.267 2142.13 629.333C2144.13 622.4 2146.67 615.867 2147.87 614.933C2150.4 612.933 2168 612.8 2177.47 614.8C2186.4 616.8 2193.33 622.8 2194.53 630C2196.13 639.733 2202.53 639.467 2202.67 629.733C2202.67 627.333 2203.87 622.267 2205.47 618.4C2207.6 613.067 2207.87 610.8 2206.8 608.4L2205.33 605.333H2154.13C2125.73 605.333 2102.53 605.867 2102.13 606.533Z" fill="#020166"/>
<path d="M2309.47 606.667C2307.87 607.6 2299.6 629.067 2297.73 636.933C2296.53 642.133 2302.13 640.8 2305.87 634.933C2310.93 627.067 2317.47 621.6 2326.4 618C2338 613.333 2344 613.733 2344 619.2C2343.87 622.133 2340.27 635.2 2330.53 667.333C2329.07 672.4 2326.67 680.533 2325.2 685.333C2323.87 690.133 2321.73 696.933 2320.67 700.667C2319.47 704.267 2317.2 711.733 2315.6 717.067C2312.27 728.267 2306.67 736 2302 736C2297.47 736 2294.67 737.333 2294.67 739.467C2294.67 741.067 2300 741.333 2325.47 741.333C2354 741.333 2356.13 741.2 2355.73 738.933C2355.47 737.733 2353.87 736.533 2352 736.267C2350.13 736 2347.6 734.8 2346.27 733.6C2343.07 730.667 2344 721.6 2349.33 704C2351.47 697.067 2354.4 686.8 2356 681.333C2361.07 664.4 2364.13 654.133 2365.47 650C2366.93 645.6 2371.47 629.733 2373.33 622.8C2375.2 615.733 2377.33 614.267 2384.8 615.467C2394 616.8 2400.93 623.867 2402.13 633.333C2402.8 638.533 2403.47 640 2405.47 640C2407.2 640 2408.13 638.667 2408.67 634.933C2409.07 632.267 2410.67 626.267 2412.13 621.6C2413.6 617.067 2414.67 611.6 2414.4 609.6L2414 606L2362.53 605.733C2334.27 605.6 2310.4 606 2309.47 606.667Z" fill="#020166"/>
<path d="M2704.67 606.667C2703.33 608.933 2705.2 610.533 2710.13 611.467C2716.67 612.667 2719.47 617.067 2717.6 623.733C2716.8 626.4 2715.2 632.267 2714 636.667C2709.73 652.4 2707.6 659.467 2705.2 666.667C2703.87 670.667 2701.6 678.533 2700.13 684C2695.33 702.133 2689.33 721.867 2687.07 727.067C2684.8 732.4 2681.07 735.067 2673.73 736.667C2671.2 737.2 2669.33 738.4 2669.33 739.467C2669.33 741.067 2674.13 741.333 2700.27 741.067C2732.27 740.667 2738.4 739.467 2726 736C2717.33 733.6 2716.13 730.133 2719.87 718.667C2723.87 705.733 2726.8 696.133 2728.8 688.667C2729.73 684.933 2732.13 676.533 2734 670C2735.87 663.333 2738.53 653.733 2740 648.667C2745.6 628.4 2746.53 625.467 2748.67 621.333C2751.87 615.067 2754.8 612.4 2759.33 611.2C2763.6 610.133 2767.33 607.2 2765.6 606.133C2763.6 604.933 2705.47 605.333 2704.67 606.667Z" fill="#020166"/>
<path d="M2782.13 606.533C2781.2 608 2783.73 610 2788 611.333C2794.8 613.333 2797.33 615.867 2797.33 620.8C2797.33 624.933 2794.4 636.133 2790.53 647.333C2789.73 649.467 2788.4 654.267 2787.33 658C2786.4 661.6 2782.8 674.267 2779.33 686C2775.87 697.733 2772 711.067 2770.67 715.733C2767.2 728.133 2762.8 733.867 2755.47 736C2752.13 736.933 2749.33 738.133 2749.33 738.8C2749.33 740.933 2755.07 741.467 2772 741.067C2785.47 740.8 2788.67 740.267 2788.67 738.8C2788.67 737.733 2786.67 736.267 2784.27 735.733C2781.33 734.933 2779.47 733.467 2778.53 731.067C2776.4 725.467 2777.73 719.2 2787.47 685.333C2789.2 679.067 2791.47 670.933 2792.4 667.333C2793.47 663.6 2794.8 659.467 2795.6 658C2796.4 656.533 2797.33 652.933 2797.87 649.867C2798.93 642.533 2802.27 634.667 2804.67 633.733C2807.07 632.933 2810.67 635.6 2810.67 638.267C2810.67 639.2 2813.87 646.8 2817.87 655.067C2821.73 663.333 2826.93 674.133 2829.2 679.333C2831.6 684.4 2834.93 691.6 2836.67 695.333C2852.27 728.133 2856 736.4 2856 737.333C2856 737.867 2856.93 739.067 2858 740C2859.73 741.333 2860.53 741.333 2862.67 739.333C2864.13 738 2865.33 736 2865.33 735.067C2865.33 733.067 2875.47 697.467 2880 683.333C2881.47 678.933 2884.13 670.667 2886 664.933C2887.87 659.333 2889.33 653.6 2889.33 652.267C2889.47 651.067 2890.4 647.6 2891.47 644.667C2892.67 641.733 2894.13 636.933 2894.8 634C2897.47 622.4 2901.33 616.267 2907.87 613.067C2913.73 610.267 2916 608.533 2916 606.267C2916 605.733 2907.33 605.333 2896.67 605.333C2884.8 605.333 2877.33 605.867 2877.33 606.667C2877.33 607.333 2879.73 609.6 2882.67 611.467C2890.93 616.933 2891.07 620.267 2884 643.333C2880 656.8 2874.53 675.867 2873.07 682C2871.2 690.133 2869.73 691.2 2865.2 687.867C2863.07 686.4 2861.33 684.267 2861.33 683.2C2861.33 681.2 2857.47 672.667 2845.33 647.333C2836.8 629.733 2830.67 616.133 2830.67 615.2C2830.67 614.8 2829.07 612.4 2827.2 609.867L2823.73 605.333H2803.2C2792 605.333 2782.53 605.867 2782.13 606.533Z" fill="#020166"/>
<path d="M2932 607.333C2932 608.4 2933.6 609.733 2935.73 610.133C2942.53 611.867 2945.33 614.667 2945.33 619.733C2945.33 622.4 2944.8 626.267 2944 628.533C2943.33 630.8 2941.2 638 2939.33 644.667C2937.47 651.2 2934.8 660.533 2933.33 665.333C2932 670.133 2929.33 679.333 2927.6 686C2920.27 712.4 2917.07 722.267 2914.13 728C2911.2 733.733 2909.73 734.667 2901.07 736.533C2898.93 737.067 2897.33 738.267 2897.33 739.333C2897.33 740.933 2902 741.333 2925.73 741.6C2955.73 742 2961.47 741.333 2958.67 738C2957.73 736.933 2955.87 736 2954.4 736C2947.07 736 2944.27 730.133 2947.2 721.067C2948.27 717.867 2950.4 710.533 2952 704.667C2954.67 694.4 2957.6 684.267 2961.73 670C2962.8 666.267 2966.53 653.733 2969.87 642C2973.33 630.267 2976.93 619.333 2978 617.733C2979.2 616.133 2983.33 613.2 2987.47 611.2C2992.8 608.667 2994.4 607.333 2993.2 606.533C2992.13 605.867 2978 605.333 2961.73 605.333C2936.4 605.333 2932 605.6 2932 607.333Z" fill="#020166"/>
<path d="M2214.67 689.067C2211.07 692.8 2208.13 702.4 2210 705.333C2210.53 706.133 2220.4 706.667 2237.2 706.667C2266.4 706.667 2266 706.8 2269.2 697.467C2271.2 691.2 2271.07 687.067 2268.53 686.133C2267.33 685.733 2255.6 685.333 2242.4 685.333H2218.4L2214.67 689.067Z" fill="#020166"/>
<path d="M3286.13 716.133C3281.07 720.533 3278.8 727.333 3281.07 731.6C3281.87 733.067 3284.93 737.067 3287.87 740.667C3290.93 744.267 3293.33 748.667 3293.33 750.267C3293.33 754.133 3288.93 759.067 3280.67 764.4C3274 768.667 3272.13 772.267 3276.13 773.067C3277.33 773.333 3282.8 770.4 3288.53 766.667C3295.87 761.6 3300.4 757.333 3305.07 750.933C3311.07 742.533 3311.33 741.6 3311.73 731.867C3312.27 722 3312.13 721.733 3307.6 716.933C3303.6 712.667 3302.27 712 3296.93 712C3292 712 3289.87 712.8 3286.13 716.133Z" fill="#020166"/>
<path d="M3749.73 714.667C3744.53 717.733 3742.53 721.2 3742.27 727.867C3741.73 741.867 3758.53 748.8 3769.2 738.8C3776.4 732 3776.27 724.667 3768.8 716.8C3765.2 712.933 3763.33 712 3759.2 712C3756.27 712 3752.13 713.2 3749.73 714.667Z" fill="#020166"/>
<path d="M153.5 152.5L149.5 154.5V158L184.5 237L186.5 235L195 233.5L213.5 232L237.5 231.5H243.5H257L272.5 232L280.5 233L281.5 233.5L286 234.5L296 236L311 238L333.5 242L348.5 245.5L376 251.5L378.5 252L394 255L416 260L430 262L441 264L452 265.5L464.5 267.5L475 268.5L486 269.5L497 270H509L523.5 269.5L539 268L574 262L581 260.5L622.5 250.5L665.5 241L678 239.5L708 238.5H745.5L762 239L769.5 240L772.5 241L770.5 236.5C766.667 232 754.3 216.4 735.5 190C722.3 172.4 713.333 155.333 710.5 149H690.5L662.5 150.5L636.5 153.5L611 158L594 161.5L583.5 164L561 169.5L518 176.5L504.5 178L489.5 178.5H464H456.5L441.5 178L428 177L412 174L388.5 170L369.5 166.5L352.5 163L348.5 162L338 160L327.5 158L318 156L306 153L294 150.5L275.5 147.5L257 145L247.5 144L238 143H233.5L228 142.5C225.833 142.333 220.2 142.1 215 142.5C209.8 142.9 208.833 143 209 143L201 144L183 146L169.5 148L162.5 149L159.5 150L156.5 151L153.5 152.5Z" fill="#D71F27"/>
<path d="M219 331H217L218 338.5L239.5 415.5L248 412.5L259.5 411.5L278.5 411L302.5 410.5H308.5L322 411.5L337 412.5L344.5 414L349 415L357.5 416.5L364.5 418L377.5 419.5L397.5 422.5L410.5 426L438.5 432.5L451.5 435.5L468.5 439L484.5 442L494.5 443L506.5 446.5L517.5 447.5H529L540 449H551H561.5H574L588.5 448.5L604 447L639 441L646 439.5L687.5 429.5L730.5 420L743 418.5H772.5L800.5 419L812 420L818.5 420.5L822 422L824 423L820 409.5C818.5 402.5 816 394 816 364C816 343 821.5 332.5 820.5 326H818.5L784 324H757.5L727.5 326L702.5 329.5L678 334L655 338.5L644 342.5L621 346.5L582.5 354L567.5 355.5L553.5 356.5L529 357.5H521.5L506.5 357L493 356L477 353L453.5 349L434.5 345.5L417.5 342L413.5 341L403 339L392.5 337L383 335L371 332L359 329.5L340.5 326.5L322 324L312.5 323L303 322H298.5L293 321.5C290.833 321.333 285.2 321.1 280 321.5C274.8 321.9 273.833 322 274 322L266 323L248 325L234.5 327L227.5 328L224.5 329L221.5 330L219 331Z" fill="#D71F27"/>
</g>
<defs>
<filter id="filter0_d_1_4" x="0.496704" y="0.216354" width="3778.01" height="780.867" filterUnits="userSpaceOnUse" color-interpolation-filters="sRGB">
<feFlood flood-opacity="0" result="BackgroundImageFix"/>
<feColorMatrix in="SourceAlpha" type="matrix" values="0 0 0 0 0 0 0 0 0 0 0 0 0 0 0 0 0 0 127 0" result="hardAlpha"/>
<feOffset dy="4"/>
<feGaussianBlur stdDeviation="2"/>
<feComposite in2="hardAlpha" operator="out"/>
<feColorMatrix type="matrix" values="0 0 0 0 0 0 0 0 0 0 0 0 0 0 0 0 0 0 0.25 0"/>
<feBlend mode="normal" in2="BackgroundImageFix" result="effect1_dropShadow_1_4"/>
<feBlend mode="normal" in="SourceGraphic" in2="effect1_dropShadow_1_4" result="shape"/>
</filter>
<filter id="filter1_d_1_4" x="0.496704" y="0.216354" width="880.503" height="645.703" filterUnits="userSpaceOnUse" color-interpolation-filters="sRGB">
<feFlood flood-opacity="0" result="BackgroundImageFix"/>
<feColorMatrix in="SourceAlpha" type="matrix" values="0 0 0 0 0 0 0 0 0 0 0 0 0 0 0 0 0 0 127 0" result="hardAlpha"/>
<feOffset dy="4"/>
<feGaussianBlur stdDeviation="2"/>
<feComposite in2="hardAlpha" operator="out"/>
<feColorMatrix type="matrix" values="0 0 0 0 0 0 0 0 0 0 0 0 0 0 0 0 0 0 0.25 0"/>
<feBlend mode="normal" in2="BackgroundImageFix" result="effect1_dropShadow_1_4"/>
<feBlend mode="normal" in="SourceGraphic" in2="effect1_dropShadow_1_4" result="shape"/>
</filter>
</defs>
</svg>
