<?xml version="1.0" standalone="no"?>
<!DOCTYPE svg PUBLIC "-//W3C//DTD SVG 20010904//EN"
 "http://www.w3.org/TR/2001/REC-SVG-20010904/DTD/svg10.dtd">
<svg version="1.0" xmlns="http://www.w3.org/2000/svg"
 width="330.000000pt" height="314.000000pt" viewBox="0 0 330.000000 314.000000"
 preserveAspectRatio="xMidYMid meet">
<metadata>
Created by potrace 1.16, written by Peter Selinger 2001-2019
</metadata>
<g transform="translate(0.000000,314.000000) scale(0.100000,-0.100000)"
fill="#000000" stroke="none">
<path d="M145 2666 c-48 -21 -67 -49 -63 -93 3 -33 7 -39 34 -47 30 -9 33 -15
57 -105 14 -53 32 -123 40 -156 8 -33 35 -132 60 -220 25 -88 54 -196 65 -240
11 -44 37 -136 56 -205 20 -69 41 -145 46 -170 6 -25 37 -142 69 -260 33 -118
73 -264 90 -325 16 -60 43 -157 60 -215 17 -58 31 -115 31 -127 0 -29 18 -39
36 -21 13 13 1 65 -91 404 -178 655 -231 848 -310 1144 -43 157 -90 330 -105
385 -15 55 -26 103 -23 108 2 4 17 7 32 7 25 0 28 -5 43 -62 8 -35 50 -191 92
-348 43 -157 100 -366 126 -465 27 -99 79 -290 115 -425 167 -615 196 -726
198 -741 1 -11 8 -14 25 -11 14 3 21 10 18 18 -3 7 -12 48 -21 90 -9 43 -37
148 -62 233 -25 86 -54 192 -64 236 -9 44 -42 166 -72 270 -30 105 -58 206
-61 227 -4 20 -27 105 -52 190 -25 84 -54 191 -65 238 -10 47 -36 145 -57 218
-22 72 -38 132 -35 132 5 0 79 -158 88 -189 4 -13 28 -69 54 -125 26 -55 62
-146 80 -201 19 -55 37 -104 41 -110 15 -21 112 -341 164 -545 29 -113 81
-387 105 -555 16 -111 19 -120 40 -123 23 -4 23 -3 16 85 -3 48 -11 121 -17
161 -6 40 -8 75 -4 79 3 3 43 14 88 24 135 30 335 26 533 -10 341 -63 426 -63
735 -1 234 46 367 55 545 36 83 -9 178 -22 212 -30 100 -22 183 -30 183 -16 0
6 -13 28 -29 48 -48 61 -171 350 -171 402 0 12 -4 39 -10 59 -5 20 -16 73 -25
118 -8 45 -33 128 -55 185 -46 119 -171 367 -210 418 -15 19 -36 53 -48 75
-27 55 -69 198 -77 265 -3 30 -10 61 -14 68 -20 33 -420 33 -561 0 -74 -17
-589 -17 -680 1 -36 7 -130 27 -210 46 -80 19 -192 39 -250 46 -153 17 -379 6
-527 -26 -27 -6 -52 30 -34 48 6 6 11 30 11 54 0 32 -5 45 -19 53 -27 14 -130
12 -166 -4z m875 -205 c52 -12 174 -35 270 -52 156 -28 198 -32 385 -33 140
-1 235 4 285 13 41 7 95 17 120 22 71 13 319 21 390 12 l65 -8 8 -69 c4 -38
18 -98 30 -135 l23 -66 -175 -2 c-138 -1 -214 -7 -356 -30 -141 -22 -213 -28
-335 -28 -146 0 -164 2 -300 37 -80 20 -183 42 -230 49 -88 13 -430 18 -603 9
-114 -6 -92 -24 -178 155 -29 61 -55 113 -56 116 -2 3 31 12 74 18 43 7 85 14
93 16 8 2 101 2 205 0 146 -3 212 -8 285 -24z m385 -661 c152 -25 231 -33 395
-37 200 -5 208 -4 320 23 107 27 129 28 325 29 116 0 239 -4 276 -8 l65 -8 37
-72 c42 -83 54 -114 72 -178 l12 -46 -56 11 c-31 5 -139 10 -241 9 -150 0
-207 -4 -300 -22 -92 -18 -162 -24 -350 -28 -242 -5 -334 3 -595 52 -147 27
-441 14 -574 -25 -41 -11 -39 -14 -70 82 -13 40 -36 110 -51 155 l-28 82 41 6
c90 11 139 13 332 9 165 -3 234 -9 390 -34z m1473 -614 c57 -8 107 -18 111
-22 5 -5 14 -31 21 -59 7 -27 34 -94 61 -147 26 -54 47 -98 44 -98 -2 0 -57
12 -122 27 -106 24 -138 27 -318 27 -181 1 -212 -2 -320 -25 -132 -30 -260
-49 -375 -56 -80 -6 -337 19 -455 44 -38 8 -146 17 -240 20 -147 4 -184 2
-270 -16 -54 -11 -101 -18 -104 -15 -3 2 -19 67 -36 143 l-31 139 76 16 c198
42 363 47 520 16 293 -58 579 -65 750 -20 168 45 215 50 405 45 99 -3 227 -11
283 -19z"/>
</g>
</svg>
